/* XPM */
static char * fedora_small_logo_1_xpm[] = {
"85 20 223 2",
"  	c None",
". 	c #D4D9E3",
"+ 	c #A9B3C7",
"@ 	c #EAECF1",
"# 	c #6B7C9E",
"$ 	c #2D4575",
"% 	c #294172",
"& 	c #B6BECF",
"* 	c #384E7C",
"= 	c #304778",
"- 	c #687FA6",
"; 	c #8FA2C2",
"> 	c #5A739E",
", 	c #394F7E",
"' 	c #BCCDE5",
") 	c #658DC4",
"! 	c #4777B8",
"~ 	c #9AB4D8",
"{ 	c #5882BF",
"] 	c #9BB5D8",
"^ 	c #4F6692",
"/ 	c #DEE5F0",
"( 	c #FFFFFF",
"_ 	c #F5F8FB",
": 	c #4570AE",
"< 	c #2C487D",
"[ 	c #A9BFDE",
"} 	c #3C6EB4",
"| 	c #4B79BA",
"1 	c #94AFD6",
"2 	c #D4DFEF",
"3 	c #668DC4",
"4 	c #324A79",
"5 	c #E0E7F2",
"6 	c #D8E1EE",
"7 	c #91A5C5",
"8 	c #7A98C4",
"9 	c #3966A9",
"0 	c #4273B6",
"a 	c #B5C8E2",
"b 	c #6D83AA",
"c 	c #D6DFED",
"d 	c #3865A6",
"e 	c #2E4E84",
"f 	c #D3DFEE",
"g 	c #5D86C1",
"h 	c #93A6C5",
"i 	c #899DBE",
"j 	c #325792",
"k 	c #31558F",
"l 	c #C0D0E7",
"m 	c #6F94C8",
"n 	c #DDE6F2",
"o 	c #C8D6EA",
"p 	c #EDF1F8",
"q 	c #CCD9EB",
"r 	c #DAE4F1",
"s 	c #D3DEEE",
"t 	c #CEDBEC",
"u 	c #E3EAF4",
"v 	c #E1E9F4",
"w 	c #CBD8EB",
"x 	c #C6D5E9",
"y 	c #E8EEF6",
"z 	c #99ACC9",
"A 	c #7E93B7",
"B 	c #E9EFF6",
"C 	c #4E7BBB",
"D 	c #91ADD5",
"E 	c #507DBC",
"F 	c #789ACB",
"G 	c #8FACD4",
"H 	c #3D6FB4",
"I 	c #5480BD",
"J 	c #B9CBE4",
"K 	c #A3BBDC",
"L 	c #4172B6",
"M 	c #3E6FB5",
"N 	c #93AFD6",
"O 	c #95B0D6",
"P 	c #D0DCED",
"Q 	c #648CC3",
"R 	c #294273",
"S 	c #2D4A7F",
"T 	c #5E78A4",
"U 	c #C1CEE2",
"V 	c #C4D0E3",
"W 	c #5874A3",
"X 	c #2A4274",
"Y 	c #99B3D8",
"Z 	c #6C92C7",
"` 	c #4E7CBB",
" .	c #7F9FCE",
"..	c #D2DDEE",
"+.	c #C9D7EA",
"@.	c #4575B8",
"#.	c #84A3D0",
"$.	c #A8BEDD",
"%.	c #5E87C1",
"&.	c #86A5D1",
"*.	c #7598CA",
"=.	c #88A7D1",
"-.	c #4373B7",
";.	c #90ADD4",
">.	c #3E70B5",
",.	c #7B9DCC",
"'.	c #85A4D0",
").	c #4171B6",
"!.	c #7195C8",
"~.	c #AFC3E0",
"{.	c #C5D4E9",
"].	c #638BC3",
"^.	c #92AED5",
"/.	c #4D7BBA",
"(.	c #4978B9",
"_.	c #94A0B8",
":.	c #3866A8",
"<.	c #4071B5",
"[.	c #FAFCFD",
"}.	c #EAF0F7",
"|.	c #3967AA",
"1.	c #7296C9",
"2.	c #BDCEE6",
"3.	c #ACC2DF",
"4.	c #DDE5F2",
"5.	c #DAE3F1",
"6.	c #5681BE",
"7.	c #E6ECF5",
"8.	c #EFF3F9",
"9.	c #517EBC",
"0.	c #C2D2E7",
"a.	c #EEF2F9",
"b.	c #B6C8E3",
"c.	c #799BCC",
"d.	c #87A6D1",
"e.	c #2A4375",
"f.	c #7890B7",
"g.	c #99ABC8",
"h.	c #DFE6F1",
"i.	c #BDCBE0",
"j.	c #93A7C6",
"k.	c #6882AE",
"l.	c #2F4E86",
"m.	c #2A4374",
"n.	c #E7EDF6",
"o.	c #A2BADB",
"p.	c #82A2CF",
"q.	c #7D9ECD",
"r.	c #B3C7E2",
"s.	c #6A90C6",
"t.	c #AAC0DE",
"u.	c #7C9ECD",
"v.	c #A7BEDD",
"w.	c #DBE4F1",
"x.	c #4A78B9",
"y.	c #5883BF",
"z.	c #30528A",
"A.	c #3762A3",
"B.	c #9CB5D9",
"C.	c #A0B8DB",
"D.	c #95B1D6",
"E.	c #335996",
"F.	c #30528C",
"G.	c #A0B2CE",
"H.	c #7A8FB4",
"I.	c #BECFE6",
"J.	c #85A5D0",
"K.	c #B6C9E3",
"L.	c #9EB7DA",
"M.	c #3F70B5",
"N.	c #B2C6E1",
"O.	c #31548D",
"P.	c #365F9D",
"Q.	c #2B4274",
"R.	c #E6EBF4",
"S.	c #556D98",
"T.	c #779ACB",
"U.	c #8AA8D2",
"V.	c #B4C7E2",
"W.	c #4877B9",
"X.	c #4776B8",
"Y.	c #A5BCDC",
"Z.	c #DFE7F3",
"`.	c #E2E9F4",
" +	c #5984BF",
".+	c #2B4679",
"++	c #3B6BB0",
"@+	c #3D6EB3",
"#+	c #6A88B6",
"$+	c #7B91B5",
"%+	c #CED8E9",
"&+	c #DAE2EF",
"*+	c #2C4475",
"=+	c #7397C9",
"-+	c #5581BE",
";+	c #4474B7",
">+	c #5B85C0",
",+	c #ECF1F8",
"'+	c #678EC4",
")+	c #C3D2E8",
"!+	c #AEC3E0",
"~+	c #7FA0CE",
"{+	c #9DA8BE",
"]+	c #5B83BD",
"^+	c #FEFEFF",
"/+	c #E4EAF3",
"(+	c #4E6592",
"_+	c #5F88C2",
":+	c #4675B8",
"<+	c #7095C8",
"[+	c #7A9CCC",
"}+	c #E0E8F3",
"|+	c #7E9FCD",
"1+	c #527EBD",
"2+	c #89A7D2",
"3+	c #5782BE",
"4+	c #E3EBF4",
"5+	c #E4E7ED",
"6+	c #2C4374",
"7+	c #768EB3",
"8+	c #A2B3CF",
"9+	c #7D92B6",
"0+	c #344C7B",
"                                                                                                                                                                          ",
"                      . + + .                                                                                                                                             ",
"                @ # $ % % % % $ # @                                                                                                                                       ",
"              & * % % % % = - ; > , &                     ' ) ! ~                                     { ]                                                                 ",
"            & % % % % % ^ / ( ( _ : < &                 [ } } | 1                                   2 } 3                                                                 ",
"          @ * % % % % 4 5 ( 6 7 8 } 9 , @               0 } a                                       2 } 3                                                                 ",
"          # % % % % % b ( c % % % d } e #             f } g                                         2 } 3                                                                 ",
"          $ % % % % % h ( i % % % j } k $             l } m             n o p                 q r   2 } 3           s t             u     v w         n x y               ",
"        . % % % % % % z ( A % % % d } e % .       B C } } } } D     x E } } } F p         G H } } I J } 3       K L } } M N       O } l 3 } } P   x E } } } Q v           ",
"        + % % R S T A U ( V A W d } 9 X % +         Y Z } `  ...  +.} @.#.$.3 } %.      &.} H *.=.-.L } 3     ;.} >.,.'.L } F      .} H ).!.~.  {.} } ].^./.} (.p         ",
"        _.% < :.<.[.( ( ( ( ( }.} |.< % % +           o } 1.      I } 2.      1.} 3.  4.H H 5.      6.} 3   5.H -.7.    8.9.} 0.   .} 6.a.      /.} b.      c.} d.        ",
"        _.e.|.} |.f.g.h.( i.j.k.l.m.% % % .           o } 1.    n.} 0 o.K K K p.} q.  r.} s.        ] } 3   t.} u.        O } ^.   .} v.      w.} x.        +.} y.        ",
"        _.z.} A.% % % z ( A % % % % % % $             o } 1.    s } >.! ! ! ! ! ! B.  C.} D         0.} 3   D.} K         ' } q.   .} 0.      x } Z           } M         ",
"        _.E.} F.% % % G.( H.% % % % % % #             o } 1.      } -.8.              I.} I         J.} 3   K.} 3          .} L.   .} 0.      n.} M.8.      N.} }         ",
"        _.O.} P.% % Q.R.( S.% % % % % * @             o } 1.      T.} U.      V.{ f   8.W.} Y 8.  J X.} 3   a.| } Y.    N.-.L Z.   .} 0.        s.}  .`.  o  +} }         ",
"        _..+++@+#+$+%+( &+*+% % % % % &               +.} =+      p -+} ;+1.9.} >+,+    K.M } L | } | } '+    )+0 } ;+(.} M !+    ~+} )+        `./.} H E } X.M }         ",
"        {+% e ]+^+( ( /+(+% % % % * &                   ) K.          D._+:+3 ~           P <+| 6.^.a.[+[       }+|+1+C T.2       2.Q p           8.2+3+/.u.4+K |+        ",
"        5+6+% .+7+8+9+0+% % % $ # @                                                                                                                                       ",
"          5+{+_._._._._._.+ .                                                                                                                                             ",
"                                                                                                                                                                          "};
