<?xml version="1.0" encoding="UTF-8"?>
<!DOCTYPE svg PUBLIC "-//W3C//DTD SVG 1.1//EN" "http://www.w3.org/Graphics/SVG/1.1/DTD/svg11.dtd">
<!-- Creator: CorelDRAW -->
<svg xmlns="http://www.w3.org/2000/svg" xml:space="preserve" width="157.7mm" height="71.6449mm" style="shape-rendering:geometricPrecision; text-rendering:geometricPrecision; image-rendering:optimizeQuality; fill-rule:evenodd; clip-rule:evenodd"
viewBox="0 0 149.602 67.9659"
 xmlns:xlink="http://www.w3.org/1999/xlink">
 <defs>
  <style type="text/css">
   <![CDATA[
    .str0 {stroke:#1F1A17;stroke-width:0.0722871}
    .str2 {stroke:#1C477A;stroke-width:0.0722871}
    .str1 {stroke:#1C477A;stroke-width:0.0722871;stroke-linecap:round;stroke-linejoin:round}
    .fil0 {fill:none}
    .fil8 {fill:none;fill-rule:nonzero}
    .fil2 {fill:white}
    .fil3 {fill:#31416E}
    .fil4 {fill:#416FB2}
    .fil5 {fill:white}
    .fil1 {fill:#1C477A}
    .fil7 {fill:white;fill-rule:nonzero}
    .fil6 {fill:#1A477A;fill-rule:nonzero}
   ]]>
  </style>
 </defs>
 <g id="Слой_x0020_1">
  <metadata id="CorelCorpID_0Corel-Layer"/>
  <g id="_69223832">
   <g>
    <path id="_68987240" class="fil0 str0" d="M19.8496 32.4838c2.11103,-1.80888 3.88405,-1.96105 5.88447,-0.302619 0.799426,0.662821 1.28627,2.07783 -0.517109,2.66798 -0.116589,1.27565 -0.232609,2.16615 -0.717273,2.85619 -1.63699,2.33093 -4.52316,0.350621 -3.37188,-0.963732l0 0c-0.0521757,-0.223407 0.641097,2.03182 1.98998,1.17946 0.926071,-0.585127 1.5796,-4.36796 1.12111,-5.14832 -0.458482,-0.780359 -1.86779,-0.800185 -2.57321,-0.668323 -0.701146,0.130914 -2.12336,1.04095 -2.70384,2.01825l-4.28875 4.97709c-2.53156,2.93816 -6.8169,1.42544 -6.9184,1.42743 -0.101411,0.0018973 1.45039,0.0447762 2.77783,-0.154155 1.32735,-0.198932 3.95226,-1.26455 6.30595,-4.70103 0.672308,-0.981472 0.714048,-1.21038 1.55948,-1.93458l-0.0700103 -1.0659c0,-0.928063 0.566913,-2.31262 0.70589,-2.8376 0.0388946,-0.147041 0.107387,1.53472 0.225684,1.91874 0.0687771,0.223881 0.460949,0.548983 0.696213,0.687296"/>
    <path id="_68445560" class="fil1 str1" d="M25.7341 32.1812c-1.97689,-1.63889 -3.73161,-1.50949 -5.81019,0.239534 -0.237257,-0.147515 -0.598503,-0.454023 -0.664339,-0.668039 -0.118297,-0.384013 -0.186789,-2.06578 -0.225684,-1.91874 -0.138977,0.524982 -0.70589,1.90954 -0.70589,2.8376l0.0700103 1.0659c-0.845436,0.724199 -0.887177,0.953108 -1.55948,1.93458 -2.35369,3.43648 -4.9786,4.5021 -6.30595,4.70103 -1.21408,0.181856 -2.61599,0.161555 -2.76892,0.155389 0.239249,0.0474324 4.42146,1.45902 6.90948,-1.42867l4.28875 -4.97709c0.580478,-0.977298 2.00269,-1.88734 2.70384,-2.01825 0.705415,-0.131862 2.11473,-0.112035 2.57321,0.668323 0.458482,0.780359 -0.195042,4.56319 -1.12111,5.14832 -1.34888,0.852361 -2.04216,-1.40286 -1.98998,-1.17946 -1.15128,1.31435 1.73489,3.29466 3.37188,0.963732 0.484665,-0.690047 0.600685,-1.58054 0.717273,-2.85619 1.80338,-0.590155 1.31654,-2.00516 0.517109,-2.66798z"/>
    <path id="_68972184" class="fil1 str1" d="M24.4351 27.4696c1.70074,1.57163 2.15305,-0.93774 1.45532,-2.65451 -0.697731,-1.71686 -2.14831,-2.60338 -3.7816,-2.77812 -0.624685,-0.0667849 -1.58918,0.0718127 -2.10306,0.282887 -0.827601,0.339616 -2.034,1.09057 -2.55016,2.38661 -0.344929,0.866211 -0.530674,1.87197 -0.567102,2.77774l-0.117253 2.89262c0.00170757,3.78226 -1.76439,9.0558 -6.14867,9.68134l-2.48138 0.355269c-1.22964,0.17588 2.85894,-0.219517 4.63794,-1.86656 3.29437,-3.04943 3.08112,-5.94746 3.29409,-10.0072l0.23536 -2.73296c0.0749433,-0.871144 0.460379,-1.93781 0.960697,-2.65404 0.915921,-1.31189 2.4237,-1.92395 4.01933,-1.96626 2.638,-0.0698206 3.83975,0.882528 5.1763,3.04744 0.952823,1.54269 0.708831,5.19708 -1.50977,5.46574 -1.37611,0.166583 -2.48233,-0.0774098 -3.52897,-1.49412 -0.614819,-0.83206 -0.664244,-1.90688 0.768975,-2.68477 1.23192,-0.351095 1.32422,0.981757 2.23995,1.9489z"/>
    <path id="_69331984" class="fil1 str1" d="M12.1942 38.2613c1.02653,-1.34784 2.51382,-2.88854 2.6177,-4.69041l0.123704 -2.13769 0.273875 -4.04532c0.051986,-0.687106 -0.183753,-1.45807 0.156432,-2.06132 0.67022,-1.18818 1.54734,-4.08479 3.28299,-4.27395 0.640338,-0.069536 2.39951,0.0128068 1.64164,-1.16646l-0.665098 -0.321971c0.650773,-0.674869 1.41055,-1.20953 2.46288,-0.95823 0.23849,0.0568241 3.36789,0.370163 3.19344,0.0104351 -0.243234,-0.500887 -0.729891,-0.647073 -0.856061,-0.926356 -0.183374,-0.405642 -0.244751,-1.10148 -1.27328,-1.04389 -1.51537,0.0847144 -2.30123,0.552209 -3.25178,1.19852l-1.80054 1.22423 -0.428789 -0.306888c-1.16039,-0.830352 -1.36719,1.90821 -1.36719,2.36555l-0.625539 0.91611 -0.236214 0.390179 -0.270744 0.447478 -0.509424 0.841926c-0.409247,0.676482 -0.780833,1.22205 -0.780833,1.22205 -0.100177,-0.119625 -1.01496,-0.0212497 -1.38854,0.916869 -0.0277005,0.069536 -0.236498,0.809103 0.221699,1.82406 0.818684,1.81391 1.24055,2.78855 1.4004,4.74049 0.195232,2.38282 -0.833104,3.57736 -1.92073,5.83457z"/>
    <g>
     <path id="_69783144" class="fil1 str1" d="M15.2556 23.3799l-0.938309 -1.48549c-2.88114,-5.22725 -6.73323,-2.21642 -4.95631,-0.0923035 0.0952444,0.114122 0.344644,-0.048476 0.390938,-0.486183 0.0406022,-0.38591 -0.132147,-1.0567 0.0957187,-0.950072 0.476317,0.222933 0.461233,1.63699 -0.116968,2.11767 -1.72749,1.43777 -3.3382,-7.20812 3.43885,-3.66871l1.50162 0.784248c-0.0643184,-2.58004 -1.82444,-8.3427 -6.21545,-6.94032 -0.722206,0.230522 -1.03175,0.570233 -1.78412,0.570233l0.509709 -0.825609c1.14227,-1.67456 3.20036,-1.2304 4.4706,0.275108l-2.2649 -2.49276c-0.250159,-0.275393 -3.24836,0.439414 -1.02729,-0.756548 2.22107,-1.19606 3.50146,2.71617 4.56642,3.81936 -0.228909,-0.823143 -1.58576,-3.00466 -2.0783,-3.71576 -0.693842,-1.00177 -3.94296,-4.95328 -4.70577,-4.46292l-0.764706 0.49159 -0.627247 0.511227c-1.06419,0.2845 -0.690996,-0.80066 -0.862796,-0.78662 -1.16902,0.0975211 -0.95472,1.94852 -1.60768,0.393405 -0.322161,-0.767742 -1.24207,1.38835 -1.76458,1.61223 -0.557995,0.238775 -0.366937,-2.79064 2.31357,-3.26373 1.4521,-0.25661 3.2459,0.0573933 3.99979,0.511132 1.07852,0.649255 2.26073,2.01484 2.882,2.77214 2.154,2.62567 4.16087,5.59143 4.80396,8.94576l0.195896 1.02236 0.156907 0.629144 0.353087 1.76933 0 1.101 0.156812 1.61223 -0.121427 0.988872z"/>
     <path id="_68460648" class="fil1 str1" d="M14.0941 17.902c-0.837467,-0.902165 -4.99634,-1.63462 -5.81731,-0.222743l-1.33228 2.31546c-0.0232419,-0.778651 0.0523654,-3.37349 0.710253,-3.80721l0.843918 -0.556477c-0.257179,-0.230806 -1.79152,-0.69536 -1.34376,-1.25601 0.447762,-0.560746 1.11343,-0.305465 2.03191,-0.458482 0.265906,-0.044207 0.640528,-0.881959 1.0216,-0.645556 0.381072,0.236498 1.89132,0.838416 2.70773,1.96057 0.132811,0.1829 1.17794,2.67045 1.17794,2.67045z"/>
     <path id="_68460624" class="fil1 str1" d="M9.42853 8.47115c-0.794683,0 -1.48075,0.586834 -2.74681,0.273401 -1.26607,-0.313528 -2.39183,-1.65501 -2.19413,-1.72825l1.64685 -0.609412c1.63073,-0.603436 3.23148,1.4373 3.29409,2.06426z"/>
    </g>
    <g>
     <path id="_73753840" class="fil1 str1" d="M20.1822 4.69278c-0.228909,-0.7759 -0.442165,-1.36653 -0.901881,-2.04472l-0.666521 -0.98299c-0.392456,-0.57915 -0.353087,-0.865927 -0.353087,-1.57286 -2.54352,1.05082 -1.53273,4.68841 -0.47034,6.40945 0.553726,0.896948 1.12671,1.5796 1.76458,2.3592 0.682648,-0.880346 0.936222,-3.12077 0.627247,-4.16808zm-2.0784 0.314762c-0.0583419,0.772864 0.586645,1.48871 0.980524,2.24109 0.0849041,0.162029 0.169808,0.324153 0.254617,0.486467 0.0849041,0.162314 -0.121237,-1.74011 -0.293891,-2.84557 -0.246174,-1.57144 -0.835096,-1.29035 -0.94125,0.118012z"/>
     <path id="_69454864" class="fil1 str1" d="M23.7102 6.34229c0.400045,-0.731883 0.677241,-1.31473 0.845057,-2.12535l0.243044 -1.17509c0.143531,-0.692229 0.378131,-0.8812 0.888694,-1.41074 -2.5402,-0.886987 -4.45931,2.5032 -4.95821,4.49185 -0.25993,1.0364 -0.351569,1.9249 -0.467969,2.92886 1.1139,-0.210126 2.90941,-1.72151 3.44938,-2.70953zm-1.68281 -1.13231c-0.599072,0.540635 -0.664244,1.50143 -0.931763,2.32428 -0.0576779,0.177302 -0.115261,0.35451 -0.173034,0.532002 -0.0577727,0.177492 1.17177,-1.38332 1.8492,-2.32514 0.962404,-1.33921 0.347016,-1.51623 -0.744405,-0.531149z"/>
     <path id="_68270936" class="fil1 str1" d="M24.493 10.9873c0.834052,-0.0104351 1.4779,-0.0549268 2.26651,-0.306414l1.14331 -0.364756c0.673541,-0.214679 0.953297,-0.102834 1.66516,0.082153 -0.473376,-2.64863 -4.3691,-2.65745 -6.34665,-2.11644 -1.03061,0.282033 -1.84987,0.638061 -2.78172,1.02928 0.729606,0.867445 2.92763,1.69049 4.05339,1.67617zm0.160986 -2.02186c-0.764991,-0.256799 -1.63424,0.157855 -2.48252,0.328517 -0.18271,0.0367127 -0.36542,0.0735203 -0.548414,0.110233 -0.182994,0.0367127 1.78033,0.342273 2.93332,0.470435 1.63917,0.181571 1.49147,-0.441501 0.097616,-0.909185z"/>
     <path id="_72199976" class="fil1 str1" d="M21.7516 14.0529c0.566533,0.612163 1.0308,1.0604 1.74589,1.47752l1.03659 0.604479c0.61055,0.356407 0.714997,0.638915 1.05452,1.29149 1.64942,-2.12573 -0.953677,-5.02414 -2.68012,-6.13007 -0.899699,-0.576304 -1.71288,-0.945993 -2.62757,-1.37583 -0.155294,1.12282 0.705985,3.30604 1.47069,4.13241zm1.6091 -1.23495c-0.321782,-0.739946 -1.2119,-1.10764 -1.90688,-1.62314 -0.149697,-0.110992 -0.299394,-0.222079 -0.44928,-0.333355 -0.149792,-0.111182 0.938498,1.55114 1.61564,2.49314 0.963258,1.33864 1.32697,0.811569 0.740515,-0.536651z"/>
     <path id="_68127800" class="fil1 str1" d="M17.5046 13.8288c-0.11564,0.825989 -0.168954,1.46917 -0.0394638,2.28681l0.187927 1.18524c0.110328,0.698206 -0.0424046,0.957851 -0.332786,1.63367 2.6897,-0.0678284 3.28697,-3.91764 3.05086,-5.9542 -0.12304,-1.06135 -0.351285,-1.925 -0.597269,-2.90524 -0.967717,0.590249 -2.11331,2.63867 -2.26926,3.75371zm1.97433 0.464553c0.369404,-0.717463 0.0908806,-1.63927 0.0503733,-2.50367 -0.00882244,-0.18622 -0.01755,-0.372345 -0.0261827,-0.558754 -0.00872757,-0.18641 -0.607325,1.70814 -0.908237,2.82859 -0.426987,1.59288 0.211264,1.54108 0.884046,0.233842z"/>
     <path id="_68294216" class="fil1 str1" d="M14.9168 10.3216c-0.71604,0.427841 -1.25041,0.789561 -1.80623,1.40305l-0.805593 0.889453c-0.474704,0.523749 -0.772769,0.567577 -1.48132,0.764991 1.73925,2.05288 5.11274,0.104541 6.55137,-1.35628 0.749622,-0.761386 1.27935,-1.48065 1.88876,-2.28681 -1.06647,-0.383823 -3.38051,0.00796865 -4.34699,0.585601zm0.875982 1.82937c0.790509,-0.162029 1.33399,-0.956997 1.98192,-1.53055 0.139641,-0.123514 0.279187,-0.247123 0.418923,-0.370732 0.139831,-0.123609 -1.71146,0.597839 -2.773,1.066 -1.50864,0.665952 -1.06808,1.13069 0.372155,0.835285z"/>
     <path id="_69314832" class="fil1 str1" d="M16.4134 5.94926c-0.733685,-0.39682 -1.31777,-0.671359 -2.12915,-0.835475l-1.17623 -0.237826c-0.692798,-0.140305 -0.882813,-0.374147 -1.41463,-0.882244 -0.875603,2.54409 2.52331,4.44793 4.51415,4.93791 1.03754,0.255187 1.92652,0.342937 2.93085,0.454687 -0.215154,-1.11286 -1.7346,-2.90163 -2.72499,-3.43705zm-1.12472 1.68784c0.543291,0.5967 1.50437,0.657509 2.32846,0.921328 0.177587,0.0568241 0.355079,0.113648 0.532761,0.170567 0.177777,0.0570138 -1.38854,-1.16551 -2.33339,-1.83867 -1.34357,-0.956333 -1.51784,-0.340186 -0.527828,0.746776z"/>
    </g>
   </g>
   <g>
    <path id="_68102096" class="fil0 str0" d="M19.6251 32.4277c2.11103,-1.80888 3.88396,-1.96105 5.88437,-0.302619 0.799426,0.662821 1.28637,2.07783 -0.517109,2.66798 -0.116494,1.27565 -0.232514,2.16615 -0.717273,2.85619 -1.63689,2.33093 -4.52306,0.350621 -3.37178,-0.963732l0 0c-0.0522706,-0.223407 0.641002,2.03182 1.98998,1.17946 0.926071,-0.585127 1.5795,-4.36796 1.12102,-5.14832 -0.458482,-0.780359 -1.86779,-0.800185 -2.57312,-0.668228 -0.701241,0.130819 -2.12336,1.04086 -2.70384,2.01816l-4.28875 4.97709c-2.53166,2.93816 -6.81699,1.42544 -6.9184,1.42743 -0.101505,0.00199216 1.45039,0.0447762 2.77774,-0.154155 1.32744,-0.198932 3.95236,-1.26455 6.30605,-4.70103 0.672213,-0.981472 0.714048,-1.21038 1.55948,-1.93458l-0.0700103 -1.0659c0,-0.928063 0.566818,-2.31262 0.70589,-2.8376 0.0387997,-0.146946 0.107387,1.53472 0.225684,1.91874 0.0687771,0.223881 0.460854,0.548983 0.696213,0.687296"/>
    <path id="_68908176" class="fil2 str1" d="M25.5095 32.125c-1.97689,-1.63889 -3.73161,-1.50949 -5.81019,0.239534 -0.237257,-0.147515 -0.598503,-0.454023 -0.664244,-0.668039 -0.118297,-0.384013 -0.186884,-2.06568 -0.225684,-1.91874 -0.139072,0.524982 -0.70589,1.90954 -0.70589,2.8376l0.0700103 1.0659c-0.845436,0.724199 -0.887271,0.953108 -1.55948,1.93458 -2.35369,3.43648 -4.9786,4.5021 -6.30605,4.70103 -1.21408,0.181856 -2.6159,0.161555 -2.76882,0.155389 0.239249,0.0475273 4.42137,1.45902 6.90948,-1.42867l4.28875 -4.97709c0.580478,-0.977298 2.0026,-1.88734 2.70384,-2.01816 0.705321,-0.131957 2.11463,-0.11213 2.57312,0.668228 0.458482,0.780359 -0.194947,4.56319 -1.12102,5.14832 -1.34898,0.852361 -2.04225,-1.40286 -1.98998,-1.17946 -1.15128,1.31435 1.73489,3.29466 3.37178,0.963732 0.48476,-0.690047 0.600779,-1.58054 0.717273,-2.85619 1.80348,-0.590155 1.31654,-2.00516 0.517109,-2.66798z"/>
    <path id="_68104200" class="fil2 str1" d="M24.2105 27.4134c1.70083,1.57163 2.15305,-0.937645 1.45542,-2.65451 -0.697731,-1.71686 -2.14841,-2.60338 -3.7816,-2.77802 -0.62478,-0.0668798 -1.58918,0.0717179 -2.10306,0.282792 -0.827696,0.339711 -2.03409,1.09057 -2.55016,2.38661 -0.344929,0.866211 -0.530769,1.87197 -0.567102,2.77774l-0.117348 2.89262c0.00180243,3.78236 -1.7643,9.0558 -6.14857,9.68134l-2.48138 0.355269c-1.22973,0.17588 2.85894,-0.219423 4.63785,-1.86656 3.29447,-3.04943 3.08112,-5.94746 3.29418,-10.0071l0.235265 -2.73306c0.0750381,-0.871144 0.460474,-1.93781 0.960792,-2.65404 0.915921,-1.31189 2.4237,-1.92395 4.01933,-1.96626 2.638,-0.0698206 3.83966,0.882528 5.1763,3.04744 0.952823,1.54269 0.708831,5.19708 -1.50977,5.46583 -1.37621,0.166488 -2.48242,-0.0775046 -3.52897,-1.49422 -0.614819,-0.83206 -0.664339,-1.90688 0.768975,-2.68477 1.23192,-0.351095 1.32422,0.981757 2.23986,1.9489z"/>
    <path id="_68299312" class="fil2 str1" d="M11.9697 38.2051c1.02653,-1.34784 2.51373,-2.88854 2.6177,-4.69041l0.123704 -2.13769 0.273875 -4.04532c0.051986,-0.687106 -0.183848,-1.45807 0.156337,-2.06132 0.670315,-1.18818 1.54744,-4.08469 3.28308,-4.27395 0.640243,-0.069536 2.39942,0.0128068 1.64164,-1.16636l-0.665098 -0.322066c0.650678,-0.674774 1.41055,-1.20943 2.46279,-0.95823 0.238585,0.0568241 3.36789,0.370163 3.19353,0.0104351 -0.243234,-0.500887 -0.729891,-0.647073 -0.856156,-0.926356 -0.183279,-0.405642 -0.244657,-1.10138 -1.27318,-1.04389 -1.51547,0.0848092 -2.30123,0.552303 -3.25187,1.19852l-1.80044 1.22423 -0.428789 -0.306888c-1.16039,-0.830352 -1.36729,1.90821 -1.36729,2.36555l-0.625444 0.91611 -0.236308 0.390179 -0.27065 0.447478 -0.509424 0.842021c-0.409247,0.676387 -0.780928,1.22195 -0.780928,1.22195 -0.100177,-0.119625 -1.01486,-0.0212497 -1.38844,0.916869 -0.0277005,0.0696308 -0.236593,0.809103 0.221699,1.82406 0.818684,1.81401 1.24055,2.78855 1.4004,4.74049 0.195137,2.38291 -0.833104,3.57736 -1.92073,5.83457z"/>
    <g>
     <path id="_69103896" class="fil2 str1" d="M15.031 23.3239l-0.938214 -1.48558c-2.88124,-5.22725 -6.73332,-2.21633 -4.95631,-0.0923035 0.0952444,0.114122 0.344644,-0.048476 0.390938,-0.486183 0.0405073,-0.38591 -0.132147,-1.0567 0.0957187,-0.950072 0.476317,0.222933 0.461233,1.63699 -0.117063,2.11767 -1.72749,1.43777 -3.3382,-7.20812 3.43895,-3.66871l1.50162 0.784343c-0.0643184,-2.58014 -1.82454,-8.3428 -6.21545,-6.94041 -0.722206,0.230617 -1.03175,0.570328 -1.78422,0.570328l0.509709 -0.825704c1.14236,-1.67456 3.20036,-1.2304 4.4707,0.275108l-2.2649 -2.49276c-0.250159,-0.275298 -3.24846,0.439509 -1.02729,-0.756548 2.22107,-1.19606 3.50146,2.71617 4.56632,3.81945 -0.228814,-0.823238 -1.58567,-3.00475 -2.0783,-3.71576 -0.693747,-1.00187 -3.94287,-4.95337 -4.70568,-4.46301l-0.764801 0.49159 -0.627152 0.511227c-1.06419,0.2845 -0.691091,-0.80066 -0.862796,-0.786525 -1.16902,0.0974262 -0.954815,1.94843 -1.60777,0.393405 -0.322066,-0.767836 -1.24197,1.38825 -1.76458,1.61213 -0.5579,0.238775 -0.366937,-2.79064 2.31366,-3.26373 1.4521,-0.256515 3.2459,0.0573933 3.99979,0.511227 1.07852,0.64916 2.26073,2.01474 2.882,2.77205 2.154,2.62567 4.16087,5.59143 4.80386,8.94576l0.195991 1.02236 0.156812 0.629144 0.353087 1.76933 0 1.101 0.156907 1.61223 -0.121522 0.988967z"/>
     <path id="_21648400" class="fil2 str1" d="M13.8695 17.8459c-0.837562,-0.902165 -4.99634,-1.63462 -5.81731,-0.222743l-1.33238 2.31546c-0.0232419,-0.778651 0.0524603,-3.37349 0.710348,-3.80721l0.843918 -0.556477c-0.257274,-0.230806 -1.79152,-0.69536 -1.34386,-1.25601 0.447762,-0.560652 1.11352,-0.305465 2.03201,-0.458387 0.265906,-0.0443019 0.640528,-0.882054 1.02151,-0.645556 0.381072,0.236403 1.89132,0.838321 2.70782,1.96048 0.132811,0.1829 1.17794,2.67045 1.17794,2.67045z"/>
     <path id="_69094368" class="fil2 str1" d="M9.20398 8.41499c-0.794683,0 -1.48084,0.586929 -2.74691,0.273401 -1.26597,-0.313434 -2.39183,-1.65501 -2.19413,-1.72825l1.64685 -0.609412c1.63073,-0.603436 3.23157,1.4373 3.29418,2.06426z"/>
    </g>
    <g>
     <path id="_31683848" class="fil2 str1" d="M19.9576 4.63662c-0.228814,-0.7759 -0.44207,-1.36643 -0.901786,-2.04462l-0.666616 -0.98299c-0.392361,-0.579245 -0.353087,-0.866022 -0.353087,-1.57286 -2.54342,1.05072 -1.53273,4.68832 -0.47034,6.40936 0.553726,0.896948 1.12681,1.5796 1.76468,2.3592 0.682553,-0.880346 0.936222,-3.12068 0.627152,-4.16808zm-2.0783 0.314762c-0.0584368,0.772959 0.586645,1.48871 0.980524,2.24109 0.0849041,0.162124 0.169713,0.324153 0.254617,0.486467 0.0848092,0.162314 -0.121237,-1.74011 -0.293986,-2.84557 -0.246174,-1.57144 -0.835001,-1.29035 -0.941155,0.118012z"/>
     <path id="_21603640" class="fil2 str1" d="M23.4857 6.28613c0.400045,-0.731883 0.677146,-1.31473 0.844962,-2.12535l0.243139 -1.17509c0.143531,-0.692229 0.378131,-0.881105 0.888599,-1.41064 -2.5401,-0.887082 -4.45931,2.5032 -4.95811,4.49176 -0.25993,1.0364 -0.351664,1.9249 -0.467969,2.92886 1.11381,-0.210126 2.90941,-1.72151 3.44938,-2.70953zm-1.68281 -1.13231c-0.599167,0.540635 -0.664339,1.50143 -0.931858,2.32428 -0.057583,0.177302 -0.115166,0.354605 -0.172939,0.532002 -0.0578676,0.177492 1.17177,-1.38332 1.84911,-2.32514 0.962404,-1.33921 0.347016,-1.51623 -0.74431,-0.531149z"/>
     <path id="_34509952" class="fil2 str1" d="M24.2684 10.9311c0.833957,-0.0104351 1.47781,-0.0549268 2.26651,-0.306414l1.14322 -0.364756c0.673541,-0.214584 0.953297,-0.102834 1.66526,0.082153 -0.473376,-2.64863 -4.36919,-2.65745 -6.34675,-2.11644 -1.03061,0.282033 -1.84977,0.638061 -2.78163,1.02928 0.729606,0.867445 2.92753,1.69049 4.05339,1.67617zm0.160891 -2.02186c-0.764991,-0.256799 -1.63414,0.157855 -2.48242,0.328517 -0.18271,0.0367127 -0.365514,0.0735203 -0.548414,0.110233 -0.182994,0.0367127 1.78033,0.342273 2.93332,0.470435 1.63908,0.181571 1.49147,-0.441501 0.0975211,-0.909185z"/>
     <path id="_68809848" class="fil2 str1" d="M21.527 13.9967c0.566438,0.612163 1.0308,1.0604 1.7458,1.47752l1.03668 0.604574c0.61055,0.356313 0.714902,0.638915 1.05442,1.2914 1.64942,-2.12573 -0.953677,-5.02414 -2.68003,-6.13007 -0.899699,-0.576304 -1.71288,-0.945993 -2.62757,-1.37583 -0.155294,1.12282 0.70589,3.30604 1.47069,4.13241zm1.609 -1.23495c-0.321782,-0.739946 -1.2118,-1.10755 -1.90678,-1.62314 -0.149697,-0.110992 -0.299488,-0.222079 -0.44928,-0.33326 -0.149792,-0.111277 0.938404,1.55114 1.61564,2.49305 0.963258,1.33864 1.32697,0.811569 0.740421,-0.536651z"/>
     <path id="_69106272" class="fil2 str1" d="M17.28 13.7727c-0.11564,0.825989 -0.168954,1.46917 -0.0394638,2.28681l0.187832 1.18524c0.110423,0.698206 -0.0423097,0.957851 -0.332786,1.63367 2.6898,-0.0678284 3.28697,-3.91754 3.05095,-5.9542 -0.123135,-1.06135 -0.35138,-1.925 -0.597364,-2.90514 -0.967622,0.590155 -2.11321,2.63857 -2.26917,3.75361zm1.97433 0.464553c0.369404,-0.717463 0.0908806,-1.63927 0.0502784,-2.50367 -0.00872757,-0.186125 -0.01755,-0.372345 -0.0261827,-0.558754 -0.00863271,-0.18641 -0.60723,1.70814 -0.908142,2.82859 -0.427082,1.59288 0.211169,1.54108 0.884046,0.233842z"/>
     <path id="_68435784" class="fil2 str1" d="M14.6923 10.2654c-0.71604,0.427841 -1.25051,0.789561 -1.80632,1.40305l-0.805498 0.889453c-0.474799,0.523749 -0.772769,0.567577 -1.48132,0.764991 1.73916,2.05288 5.11274,0.104541 6.55127,-1.35628 0.749717,-0.761386 1.27944,-1.48065 1.88885,-2.28681 -1.06647,-0.383823 -3.38061,0.00796865 -4.34699,0.585601zm0.875982 1.82937c0.790509,-0.162029 1.33399,-0.956997 1.98192,-1.53055 0.139546,-0.123514 0.279093,-0.247123 0.418923,-0.370732 0.139831,-0.123609 -1.71155,0.597933 -2.773,1.066 -1.50864,0.665952 -1.06818,1.13069 0.372155,0.835285z"/>
     <path id="_68983384" class="fil2 str1" d="M16.1889 5.8931c-0.733685,-0.39682 -1.31777,-0.671264 -2.12915,-0.835475l-1.17623 -0.237826c-0.692893,-0.140305 -0.882813,-0.374147 -1.41463,-0.882244 -0.875603,2.54409 2.52322,4.44793 4.51405,4.93791 1.03754,0.255187 1.92652,0.342937 2.93095,0.454687 -0.215154,-1.11286 -1.7346,-2.90163 -2.72499,-3.43705zm-1.12472 1.68784c0.543291,0.5967 1.50437,0.657509 2.32846,0.921328 0.177492,0.0568241 0.355079,0.113648 0.532761,0.170567 0.177682,0.0570138 -1.38863,-1.16551 -2.33349,-1.83867 -1.34348,-0.956333 -1.51774,-0.340186 -0.527733,0.746776z"/>
    </g>
   </g>
   <g>
    <path id="path25" class="fil3" d="M149.136 8.87233c0,-4.85405 -3.93528,-8.78904 -8.78923,-8.78904 -4.85187,0 -8.78515,3.93177 -8.78876,8.78307l-0.000284595 -0.00037946 0 6.80153 0.000284595 0.00037946c0.00265622,1.10148 0.895904,1.99292 1.99804,1.99292l0.00939162 -0.00037946 0.000664054 0.00037946 6.78455 0c4.85205,-0.00199216 8.78534,-3.93528 8.78534,-8.78847z"/>
    <path id="path27" class="fil4" d="M142.927 2.16662c-2.27809,0 -4.12473,1.84683 -4.12473,4.12473l0 0.00284595 0 2.18351 -2.17668 0 -0.000758919 0c-2.27809,0 -4.12501,1.83772 -4.12501,4.1159 0,2.27828 1.84692,4.12501 4.12501,4.12501 2.27856,0 4.1252,-1.84683 4.1252,-4.12501l0 -0.00265622 0 -2.1928 2.17592 0 0.00104351 0c2.27837,0 4.12511,-1.82824 4.12511,-4.1068 9.48649e-005,-2.2779 -1.84673,-4.12473 -4.12511,-4.12473m-4.12473 10.4309c-0.00199216,1.20071 -0.97635,2.17373 -2.17734,2.17373 -1.20222,0 -2.18626,-0.974737 -2.18626,-2.17734 0,-1.20241 0.984034,-2.19574 2.18626,-2.19574l0.00284595 0.00037946 1.86552 0 0.0016127 -0.00037946c0.169618,0 0.307362,0.137554 0.307362,0.307362l0 0.000664054 0 1.89132zm4.12473 -4.11979l-0.00237162 0 -1.86675 0 -0.000664054 0c-0.170188,0 -0.307173,-0.137459 -0.307173,-0.307552l0 0 0 -1.88221c0.0018973,-1.20099 0.97597,-2.17383 2.17696,-2.17383 1.2027,0 2.18635,0.974642 2.18635,2.17724 0,1.20251 -0.983654,2.18635 -2.18635,2.18635z"/>
    <path id="path29" class="fil5" d="M138.802 8.4777l0 -2.18332 0 -0.00284595c0,-2.27799 1.84673,-4.12482 4.12473,-4.12482 0.345783,0 0.591577,0.0387997 0.911652,0.122471 0.466261,0.122281 0.847049,0.504586 0.847523,0.949787 0,0.537505 -0.390274,0.928538 -0.973693,0.928538 -0.278049,0 -0.378416,-0.0533141 -0.785576,-0.0533141 -1.20099,0 -2.17506,0.97284 -2.17705,2.17383l0 1.88221 0 0c0,0.170188 0.137175,0.307647 0.307267,0.307647l0.000664054 0 1.4299 0c0.532761,0 0.963163,0.426133 0.963543,0.960412 0,0.534279 -0.430592,0.959843 -0.963543,0.959843l-1.73783 0 0 2.1928 0 0.00284595c0,2.27799 -1.84683,4.12482 -4.1252,4.12482 -0.345688,0 -0.591008,-0.0387049 -0.911082,-0.12266 -0.46683,-0.121807 -0.847713,-0.504302 -0.847713,-0.949218 0,-0.537884 0.390274,-0.928917 0.973788,-0.928917 0.27767,0 0.378606,0.0534089 0.785007,0.0534089 1.20118,0 2.17544,-0.97284 2.17724,-2.17373l0 -1.89199c0,-0.169429 -0.137839,-0.306983 -0.307173,-0.306983l-0.00104351 0 -1.42961 -0.00037946c-0.532951,0 -0.963353,-0.42509 -0.963353,-0.959084 -0.000474324,-0.537979 0.434956,-0.961171 0.973693,-0.961171l1.72787 0m0 -0.00018973l0 0 0 0z"/>
    <path id="path31" class="fil4" d="M146.937 15.6596l0 0.480111 -0.0981852 0 0 -0.480111 -0.163832 0 0 -0.0964776 0.425943 0 0 0.0964776 -0.163927 0m0.682173 0.480111l0 -0.304137 0 -0.0662157 -0.0233368 0.057583 -0.143531 0.330604 -0.140495 -0.330604 -0.0236214 -0.05616 0.00132811 0.0647927 0 0.304137 -0.0933471 0 0 -0.576589 0.0981852 0 0.130155 0.29835 0.0306414 0.0794968 0.0305465 -0.0794968 0.127119 -0.29835 0.0998927 0 0 0.576589 -0.0935368 0 0 0z"/>
    <g>
     <path id="path9" class="fil1" d="M69.4917 25.7981c0,0 0,0 -9.89896,0 0.160132,2.14575 1.88999,3.74811 4.19635,3.74811 1.63405,0 3.04317,-0.672782 4.16476,-1.76183 0.22445,-0.224925 0.480491,-0.288958 0.768785,-0.288958 0.384487,0 0.768975,0.192765 1.0253,0.513029 0.160417,0.224071 0.256704,0.48068 0.256704,0.736816 0,0.352518 -0.160511,0.736816 -0.44909,1.0253 -1.34528,1.44128 -3.61976,2.40245 -5.86275,2.40245 -4.06819,0 -7.33581,-3.26772 -7.33581,-7.33638 0,-4.06809 3.17143,-7.33571 7.23999,-7.33571 4.03622,0 7.04751,3.13908 7.04751,7.27168 9.48649e-005,0.608653 -0.54386,1.02549 -1.1528,1.02549m-5.89453 -5.67045c-2.14641,0 -3.62033,1.4096 -3.9405,3.45934 4.83735,0 7.88043,0 7.88043,0 -0.288294,-1.95365 -1.82567,-3.45934 -3.93993,-3.45934z"/>
     <path id="path11" class="fil1" d="M97.7781 32.1731c-4.06838,0 -7.3359,-3.26772 -7.3359,-7.33638 0,-4.06809 3.26753,-7.33571 7.3359,-7.33571 4.06895,0 7.33609,3.26762 7.33609,7.33571 0,4.06866 -3.26715,7.33638 -7.33609,7.33638m0 -11.8856c-2.56259,0 -4.22879,2.05107 -4.22879,4.54915 0,2.49874 1.66621,4.54906 4.22879,4.54906 2.56278,0 4.22927,-2.05041 4.22927,-4.54906 0,-2.49808 -1.66649,-4.54915 -4.22927,-4.54915z"/>
     <path id="path13" class="fil1" d="M115.707 17.5009c-2.14926,0 -3.57119,0.63569 -4.82635,2.23122l-0.11602 -0.741843c-0.0974262,-0.774856 -0.75835,-1.37345 -1.55825,-1.37345 -0.868488,0 -1.57277,0.703139 -1.57277,1.57153l0 0.00341514 0 0.00142297 0 11.2817c0,0.864978 0.704751,1.56973 1.57011,1.56973 0.864883,0 1.56973,-0.704751 1.56973,-1.56973l0 -6.05437c0,-2.75497 2.40264,-4.13317 4.93354,-4.13317 0.76888,0 1.37725,-0.640623 1.37725,-1.40931 0,-0.768501 -0.608369,-1.37715 -1.37725,-1.37715z"/>
     <path id="path15" class="fil1" d="M132.269 24.8366c0.0319695,-3.93993 -2.78704,-7.33571 -7.33609,-7.33571 -4.06904,0 -7.36835,3.26762 -7.36835,7.33571 0,4.06857 3.20359,7.33628 7.07996,7.33628 1.93458,0 3.67564,-0.995607 4.45286,-2.03637l0.382211 0.970942c0.205098,0.545663 0.731219,0.93366 1.34869,0.93366 0.794968,0 1.43995,-0.644133 1.44071,-1.43872l0 -3.76282 0 -2.00298m-7.33609 4.54915c-2.56306,0 -4.22879,-2.05041 -4.22879,-4.54906 0,-2.49817 1.66573,-4.54915 4.22879,-4.54915 2.56259,0 4.2287,2.05117 4.2287,4.54915 0.00018973,2.49865 -1.66611,4.54906 -4.2287,4.54906z"/>
     <g id="g17">
      <path id="path19" class="fil1" d="M87.9231 11.7018c0,-0.864219 -0.704846,-1.53738 -1.56973,-1.53738 -0.864978,0 -1.57039,0.673161 -1.57039,1.53738l0 8.26539c-0.80047,-1.47316 -2.53024,-2.4663 -4.58074,-2.4663 -4.16447,0 -6.9517,3.13908 -6.9517,7.33571 0,4.19673 2.88342,7.33628 6.9517,7.33628 1.81467,0 3.388,-0.749053 4.33077,-2.05079l0.348439 0.883856c0.215913,0.60704 0.794873,1.04095 1.47515,1.04095 0.860994,0 1.5665,-0.700482 1.5665,-1.56508l0 -0.00692514 0 -18.7731m-7.33657 17.684c-2.56287,0 -4.19654,-2.05041 -4.19654,-4.54906 0,-2.49817 1.63367,-4.54915 4.19654,-4.54915 2.56315,0 4.19644,1.9546 4.19644,4.54915 0,2.59484 -1.63329,4.54906 -4.19644,4.54906z"/>
      <path id="path21" class="fil1" d="M55.2455 10.2593c-0.286113,-0.0425943 -0.578296,-0.0639389 -0.867824,-0.0639389 -3.24447,0 -5.88418,2.63943 -5.88418,5.88418l0 1.83791 -1.92215 0c-0.704751,0 -1.28162,0.576589 -1.28162,1.28077 0,0.705036 0.576873,1.41605 1.28162,1.41605l1.92196 0 0 9.86092c0,0.864883 0.705036,1.56963 1.56963,1.56963 0.865263,0 1.57039,-0.704751 1.57039,-1.56963l0 -9.86092 2.12507 0c0.704846,0 1.28106,-0.711012 1.28106,-1.41605 0,-0.704182 -0.576209,-1.28077 -1.28106,-1.28077l-2.12403 0 0 -1.83791c0,-1.51291 1.23049,-2.94707 2.7433,-2.94707 0.136131,0 0.273306,0.00996081 0.407634,0.0296927 0.858148,0.127214 1.65663,-0.261827 1.78384,-1.1196 0.12617,-0.857958 -0.465882,-1.65634 -1.32365,-1.78327z"/>
     </g>
     <path id="path23" class="fil1" d="M132.948 30.1373l0 0.480016 -0.0978057 0 0 -0.480016 -0.164021 0 0 -0.0965725 0.425754 0 0 0.0965725 -0.163927 0m0.682268 0.480016l0 -0.304421 0 -0.0654568 -0.0233368 0.0568241 -0.143625 0.330889 -0.140685 -0.330889 -0.0229573 -0.0555908 0.00123324 0.0642235 0 0.304421 -0.0939162 0 0 -0.576589 0.0981852 0 0.130439 0.29854 0.0305465 0.0791173 0.0307362 -0.0791173 0.127024 -0.29854 0.0996081 0 0 0.576589 -0.0932522 0z"/>
    </g>
    <g>
     <path id="path9_0" class="fil2 str2" d="M69.4917 24.9657c0,0 0,0 -9.89896,0 0.160132,2.14575 1.88999,3.74811 4.19635,3.74811 1.63405,0 3.04317,-0.672782 4.16476,-1.76183 0.22445,-0.224925 0.480491,-0.288864 0.768785,-0.288864 0.384487,0 0.768975,0.192765 1.0253,0.513029 0.160417,0.224071 0.256704,0.480586 0.256704,0.736721 0,0.352518 -0.160511,0.736816 -0.44909,1.0253 -1.34528,1.44138 -3.61976,2.40245 -5.86275,2.40245 -4.06819,0 -7.33581,-3.26762 -7.33581,-7.33628 0,-4.06809 3.17143,-7.33581 7.23999,-7.33581 4.03622,0 7.04751,3.13917 7.04751,7.27168 9.48649e-005,0.608653 -0.54386,1.02549 -1.1528,1.02549m-5.89453 -5.67045c-2.14641,0 -3.62033,1.4096 -3.9405,3.45934 4.83735,0 7.88043,0 7.88043,0 -0.288294,-1.95355 -1.82567,-3.45934 -3.93993,-3.45934z"/>
     <path id="path11_1" class="fil2 str2" d="M97.7781 31.3406c-4.06838,0 -7.3359,-3.26762 -7.3359,-7.33628 0,-4.06809 3.26753,-7.33581 7.3359,-7.33581 4.06895,0 7.33609,3.26772 7.33609,7.33581 0,4.06866 -3.26715,7.33628 -7.33609,7.33628m0 -11.8856c-2.56259,0 -4.22879,2.05107 -4.22879,4.54925 0,2.49865 1.66621,4.54896 4.22879,4.54896 2.56278,0 4.22927,-2.05041 4.22927,-4.54896 0,-2.49817 -1.66649,-4.54925 -4.22927,-4.54925z"/>
     <path id="path13_2" class="fil2 str2" d="M115.707 16.6684c-2.14926,0 -3.57119,0.63569 -4.82635,2.23132l-0.11602 -0.741843c-0.0974262,-0.774951 -0.75835,-1.37355 -1.55825,-1.37355 -0.868488,0 -1.57277,0.703139 -1.57277,1.57153l0 0.00351 0 0.00132811 0 11.2818c0,0.864883 0.704751,1.56963 1.57011,1.56963 0.864883,0 1.56973,-0.704751 1.56973,-1.56963l0 -6.05447c0,-2.75488 2.40264,-4.13317 4.93354,-4.13317 0.76888,0 1.37725,-0.640623 1.37725,-1.40922 0,-0.768595 -0.608369,-1.37725 -1.37725,-1.37725z"/>
     <path id="path15_3" class="fil2 str2" d="M132.269 24.0042c0.0319695,-3.94002 -2.78704,-7.33581 -7.33609,-7.33581 -4.06904,0 -7.36835,3.26762 -7.36835,7.33581 0,4.06857 3.20359,7.33628 7.07996,7.33628 1.93458,0 3.67564,-0.995702 4.45286,-2.03637l0.382211 0.970847c0.205098,0.545758 0.731219,0.93366 1.34869,0.93366 0.794968,0 1.43995,-0.644038 1.44071,-1.43863l0 -3.76282 0 -2.00298m-7.33609 4.54906c-2.56306,0 -4.22879,-2.05041 -4.22879,-4.54896 0,-2.49827 1.66573,-4.54925 4.22879,-4.54925 2.56259,0 4.2287,2.05117 4.2287,4.54925 0.00018973,2.49855 -1.66611,4.54896 -4.2287,4.54896z"/>
     <g id="g17_4">
      <path id="path19_5" class="fil2 str2" d="M87.9231 10.8693c0,-0.864219 -0.704846,-1.53738 -1.56973,-1.53738 -0.864978,0 -1.57039,0.673161 -1.57039,1.53738l0 8.26539c-0.80047,-1.47316 -2.53024,-2.4663 -4.58074,-2.4663 -4.16447,0 -6.9517,3.13908 -6.9517,7.33581 0,4.19663 2.88342,7.33628 6.9517,7.33628 1.81467,0 3.388,-0.749148 4.33077,-2.05088l0.348439 0.883951c0.215913,0.606946 0.794873,1.04086 1.47515,1.04086 0.860994,0 1.5665,-0.700482 1.5665,-1.56508l0 -0.00683027 0 -18.7732m-7.33657 17.684c-2.56287,0 -4.19654,-2.05041 -4.19654,-4.54896 0,-2.49827 1.63367,-4.54925 4.19654,-4.54925 2.56315,0 4.19644,1.9546 4.19644,4.54925 0,2.59474 -1.63329,4.54896 -4.19644,4.54896z"/>
      <path id="path21_6" class="fil2 str2" d="M55.2455 9.42682c-0.286113,-0.0425943 -0.578296,-0.0638441 -0.867824,-0.0638441 -3.24447,0 -5.88418,2.63933 -5.88418,5.88409l0 1.83791 -1.92215 0c-0.704751,0 -1.28162,0.576589 -1.28162,1.28087 0,0.705036 0.576873,1.41595 1.28162,1.41595l1.92196 0 0 9.86092c0,0.864883 0.705036,1.56963 1.56963,1.56963 0.865263,0 1.57039,-0.704751 1.57039,-1.56963l0 -9.86092 2.12507 0c0.704846,0 1.28106,-0.710918 1.28106,-1.41595 0,-0.704277 -0.576209,-1.28087 -1.28106,-1.28087l-2.12403 0 0 -1.83791c0,-1.51291 1.23049,-2.94707 2.7433,-2.94707 0.136131,0 0.273306,0.0100557 0.407634,0.0297876 0.858148,0.127119 1.65663,-0.261922 1.78384,-1.1196 0.12617,-0.857958 -0.465882,-1.65634 -1.32365,-1.78337z"/>
     </g>
     <path id="path23_7" class="fil2 str2" d="M132.948 29.305l0 0.480016 -0.0978057 0 0 -0.480016 -0.164021 0 0 -0.0966673 0.425754 0 0 0.0966673 -0.163927 0m0.682268 0.480016l0 -0.304516 0 -0.0654568 -0.0233368 0.0568241 -0.143625 0.330889 -0.140685 -0.330889 -0.0229573 -0.0555908 0.00123324 0.0642235 0 0.304516 -0.0939162 0 0 -0.576684 0.0981852 0 0.130439 0.29854 0.0305465 0.0791173 0.0307362 -0.0791173 0.127024 -0.29854 0.0996081 0 0 0.576684 -0.0932522 0z"/>
    </g>
    <rect id="_68877136" class="fil2" x="132.627" y="29.9814" width="1.31346" height="0.725252"/>
   </g>
   <g>
    <g>
     <path id="_72129128" class="fil1 str1" d="M126.473 63.5144c1.75851,0.842021 6.91186,-0.444727 7.33144,-2.95485 0.480775,-2.87659 -0.520619,-3.29599 -1.57703,-2.62463 -0.875318,0.556098 -1.52581,1.86798 -1.76212,2.02537 -1.33854,0.891066 -1.90043,-4.51984 0.579814,-4.58719 0.609222,-0.0166014 3.55373,-0.502404 4.05253,3.34323 0.299394,2.30797 -1.38949,3.88102 -3.2846,4.8493 -0.63161,0.322636 -1.28646,0.578391 -1.89796,0.771536 -0.781687,0.247028 -1.49355,0.392361 -1.99662,0.445675 -0.906529,0.0960033 -1.44546,0.309924 -1.44546,0.155863l0 -1.4243z"/>
     <path id="_71309672" class="fil1 str1" d="M133.269 63.0613c0.725242,-0.204244 1.74599,-0.827127 2.67747,-1.44982l0.367317 -0.24551 0 -0.513029 0 -0.602297c0.0334873,-0.464648 0.0909754,-0.851792 0.425279,-1.1823 0.180243,-0.178251 0.364471,-0.352044 0.541204,-0.535417l1.39907 -1.45162c0.265811,-0.275677 0.407634,-0.742128 0.385436,-1.15327 -0.0683027,-1.25952 -0.73397,-5.39383 -2.44875,-4.45789l-1.09711 0.598882c-1.15194,0.628765 -1.4298,-1.52676 -0.576304,-2.01882 1.04551,-0.602772 1.77027,-0.731788 2.57482,-0.485803 0.804644,0.24589 1.40656,0.924458 1.58586,1.97243l0.308406 1.37497 0.192671 1.06457 0.0771252 1.02018c0.0346257,1.27973 0.348913,1.87586 -0.578202,2.61704l-1.38749 1.10888c0.513883,-0.133095 0.791363,-0.222458 1.32915,-0.298824l0.847808 -0.120289c0.591103,-0.0839554 1.0512,-0.922277 1.63813,-1.05575 0.562549,-0.127878 0.0702949,0.915446 -0.037946,1.07567 1.03991,0.399571 0.879682,1.23562 0.609507,1.0715l-0.60002 -0.364186c-0.578486,-0.35138 -1.68072,2.23151 -1.91143,2.62956 -0.162124,0.279757 -0.769449,1.05784 -1.23799,1.15318 -0.914687,0.18584 -0.958705,-0.114028 -1.56224,-0.808534 -1.29187,-0.0933471 -4.2675,2.04149 -5.00052,2.0174l-0.914403 -0.0302619c0.633792,-0.255281 0.76537,-0.336106 1.17946,-0.55439 0.15776,-0.0832914 0.361056,-0.135941 1.2137,-0.376234z"/>
     <path id="_69260792" class="fil1 str1" d="M141.089 56.7264l-0.482388 -0.798383c-0.595087,-0.985077 0.163073,-4.1122 0.424046,-5.20932l0.269701 -1.13354c0.352423,0.811285 0.696878,1.35619 1.09873,2.12697 0.115451,0.221604 0.520049,0.933565 0.558565,1.15536 0.0385151,0.221794 0.154155,0.931478 0.154155,0.931478l0 0.665288 0.462561 -0.798383c0.37244,-0.48789 1.46614,-1.38721 1.85499,-1.85717 0.907478,-1.09626 1.08924,-2.66333 1.1602,-1.81638 0.238206,2.8412 0.545947,4.19132 -1.47354,6.15749 -0.275677,0.268373 1.65103,-0.460379 2.57805,-0.35783 3.6097,0.399666 1.08753,3.19657 -0.0342462,3.19657 -1.12178,0 -0.963543,0.266191 -0.963543,0.266191 0.244087,0.532287 0.48106,0.552778 0.539022,1.15071l0.116209 1.20014c0,0 0.0770303,0.709684 0.0385151,0.931478 -0.0385151,0.221794 0.0771252,0.931478 0.0771252,0.931478l0.539592 0.798383c0,0 -0.616717,-0.266096 -0.847997,-0.310493 -0.231186,-0.0443968 -0.924933,-0.221794 -1.1177,-0.399191 -0.192671,-0.177397 -0.539592,-0.48789 -0.732262,-0.709684 -0.192765,-0.221794 -0.578202,-0.665382 -0.578202,-0.665382l-0.693747 -0.798383c-0.0411714,-0.0476222 -0.849895,0.968286 -0.954531,1.47439 -0.0849989,0.411714 0.142392,1.77302 -0.192291,1.66241 -1.6812,-0.556003 -0.722017,-5.2281 -0.394828,-4.73357 0.270365,0.408963 0.23498,1.92974 0.423951,1.46367 0.216197,-0.53352 0.252341,-1.75585 0.732262,-1.55246 0.908047,0.384203 0.880251,1.07956 1.73441,1.59686 0.336676,0.206616 1.16504,0.628575 0.655232,-0.532287 -0.616337,-1.40324 -1.20156,-1.31018 -2.27401,-1.50807 -0.240672,-0.0443968 -0.655232,-0.35489 -0.655232,-0.35489 0.997979,-0.356407 1.70652,-0.405832 2.73657,-0.399191 0.971701,0.00616622 2.36508,-0.887366 2.15049,-1.18221 -0.128637,-0.176828 -1.09645,0.0332027 -2.35398,0.302524 -1.07359,0.229953 -2.34952,0.242 -2.86947,0.237352 -0.502215,-0.00436379 0.527069,-0.837562 1.37706,-1.61982 0.565774,-0.520903 1.16589,-1.60198 1.4261,-2.35085 0.464933,-1.33816 -1.02909,0.30167 -1.1564,0.530959 -0.12285,0.215059 -2.21196,3.07761 -2.08115,2.17478l0.192671 -1.33076c0.160037,-1.10546 -0.346636,-2.252 -0.983559,-3.03947l0.0970468 1.30961 0.15425 1.41937c0.0757971,0.699249 0.127309,1.77426 -0.712435,1.77426z"/>
    </g>
    <g>
     <path id="_71140984" class="fil2 str1" d="M126.473 63.1775c1.75851,0.842116 6.91186,-0.444632 7.33144,-2.95485 0.480775,-2.87649 -0.520619,-3.29589 -1.57703,-2.62453 -0.875318,0.556098 -1.52581,1.86798 -1.76212,2.02537 -1.33854,0.891066 -1.90043,-4.51984 0.579814,-4.58719 0.609222,-0.0166014 3.55373,-0.502404 4.05253,3.34323 0.299394,2.30787 -1.38949,3.88102 -3.2846,4.8493 -0.63161,0.322636 -1.28646,0.578391 -1.89796,0.771536 -0.781687,0.247028 -1.49355,0.392361 -1.99662,0.445675 -0.906529,0.0960033 -1.44546,0.309924 -1.44546,0.155768l0 -1.4243z"/>
     <path id="_68037760" class="fil2 str1" d="M133.269 62.7244c0.725242,-0.204244 1.74599,-0.827127 2.67747,-1.44982l0.367317 -0.24551 0 -0.513029 0 -0.602297c0.0334873,-0.464648 0.0909754,-0.851792 0.425279,-1.1823 0.180243,-0.178346 0.364471,-0.352044 0.541204,-0.535417l1.39907 -1.45162c0.265811,-0.275677 0.407634,-0.742128 0.385436,-1.15327 -0.0683027,-1.25952 -0.73397,-5.39392 -2.44875,-4.45789l-1.09711 0.598882c-1.15194,0.628765 -1.4298,-1.52676 -0.576304,-2.01882 1.04551,-0.602772 1.77027,-0.731788 2.57482,-0.485898 0.804644,0.245985 1.40656,0.924458 1.58586,1.97243l0.308406 1.37507 0.192671 1.06457 0.0771252 1.02018c0.0346257,1.27973 0.348913,1.87586 -0.578202,2.61694l-1.38749 1.10897c0.513883,-0.133095 0.791363,-0.222553 1.32915,-0.298824l0.847808 -0.120384c0.591103,-0.0838606 1.0512,-0.922182 1.63813,-1.05566 0.562549,-0.127878 0.0702949,0.915446 -0.037946,1.07567 1.03991,0.399571 0.879682,1.23562 0.609507,1.0715l-0.60002 -0.364186c-0.578486,-0.35138 -1.68072,2.23151 -1.91143,2.62956 -0.162124,0.279757 -0.769449,1.05784 -1.23799,1.15318 -0.914687,0.18584 -0.958705,-0.114028 -1.56224,-0.808534 -1.29187,-0.0933471 -4.2675,2.04149 -5.00052,2.0173l-0.914403 -0.030167c0.633792,-0.255281 0.76537,-0.336201 1.17946,-0.55439 0.15776,-0.0832914 0.361056,-0.135941 1.2137,-0.376234z"/>
     <path id="_68108568" class="fil2 str1" d="M141.089 56.3895l-0.482388 -0.798383c-0.595087,-0.985077 0.163073,-4.1122 0.424046,-5.20932l0.269701 -1.13364c0.352423,0.811379 0.696878,1.35628 1.09873,2.12706 0.115451,0.221604 0.520049,0.933565 0.558565,1.15536 0.0385151,0.221699 0.154155,0.931478 0.154155,0.931478l0 0.665288 0.462561 -0.798383c0.37244,-0.48789 1.46614,-1.3873 1.85499,-1.85717 0.907478,-1.09626 1.08924,-2.66333 1.1602,-1.81638 0.238206,2.84111 0.545947,4.19132 -1.47354,6.15749 -0.275677,0.268373 1.65103,-0.460474 2.57805,-0.35783 3.6097,0.399666 1.08753,3.19657 -0.0342462,3.19657 -1.12178,0 -0.963543,0.266191 -0.963543,0.266191 0.244087,0.532192 0.48106,0.552683 0.539022,1.15071l0.116209 1.20014c0,0 0.0770303,0.709684 0.0385151,0.931478 -0.0385151,0.221699 0.0771252,0.931478 0.0771252,0.931478l0.539592 0.798383c0,0 -0.616717,-0.266191 -0.847997,-0.310493 -0.231186,-0.0443968 -0.924933,-0.221794 -1.1177,-0.399191 -0.192671,-0.177492 -0.539592,-0.487985 -0.732262,-0.709684 -0.192765,-0.221794 -0.578202,-0.665382 -0.578202,-0.665382l-0.693747 -0.798383c-0.0411714,-0.0476222 -0.849895,0.968191 -0.954531,1.47439 -0.0849989,0.411714 0.142392,1.77302 -0.192291,1.66241 -1.6812,-0.556003 -0.722017,-5.2281 -0.394828,-4.73366 0.270365,0.409057 0.23498,1.92984 0.423951,1.46377 0.216197,-0.53352 0.252341,-1.75585 0.732262,-1.55246 0.908047,0.384203 0.880251,1.07956 1.73441,1.59686 0.336676,0.206616 1.16504,0.628575 0.655232,-0.532287 -0.616337,-1.40324 -1.20156,-1.31018 -2.27401,-1.50807 -0.240672,-0.0443968 -0.655232,-0.35489 -0.655232,-0.35489 0.997979,-0.356407 1.70652,-0.405832 2.73657,-0.399191 0.971701,0.00616622 2.36508,-0.887366 2.15049,-1.18221 -0.128637,-0.176828 -1.09645,0.0331078 -2.35398,0.302524 -1.07359,0.229953 -2.34952,0.242 -2.86947,0.237352 -0.502215,-0.00436379 0.527069,-0.837562 1.37706,-1.61982 0.565774,-0.520903 1.16589,-1.60198 1.4261,-2.35085 0.464933,-1.33816 -1.02909,0.301576 -1.1564,0.530959 -0.12285,0.215059 -2.21196,3.07751 -2.08115,2.17468l0.192671 -1.33067c0.160037,-1.10546 -0.346636,-2.252 -0.983559,-3.03947l0.0970468 1.30961 0.15425 1.41937c0.0757971,0.699154 0.127309,1.77426 -0.712435,1.77426z"/>
    </g>
   </g>
   <g>
    <path id="_71482240" class="fil6" d="M28.5283 64.9353l-8.73497 0 0 -1.4261 1.3191 0c0,-3.70798 -0.736816,-6.44133 -2.21045,-8.20022 -1.21218,-1.44992 -2.81663,-2.17487 -4.81316,-2.17487l0 10.3751 1.64002 0 0 1.4261 -9.69766 0 0 -1.4261 2.78096 0 0 -20.8571 -2.78096 0 0 -1.4262 15.2239 0c1.90147,0 3.16118,0.130724 3.77923,0.392266 0.950736,0.40403 1.4261,1.28343 1.4261,2.63829 0,1.85394 -0.736816,3.47025 -2.21054,4.84883 -1.75889,1.64002 -4.38532,2.68591 -7.87929,3.13747l0 0.499179c2.82849,0 5.21719,0.83187 7.16628,2.49571 2.28179,1.949 3.42273,4.70625 3.42273,8.27155l1.56869 0 0 1.4261zm-7.9863 -20.2153c0,-0.879492 -0.332786,-1.47373 -0.998263,-1.7827 -0.404124,-0.190109 -0.938878,-0.285164 -1.60445,-0.285164l-3.85047 0 0 7.9863c1.83013,0 3.38706,-0.629903 4.67048,-1.88961 1.18847,-1.16466 1.7827,-2.50766 1.7827,-4.02882z"/>
    <path id="_714822401" class="fil6" d="M32.1293 64.2935c-0.451652,-0.546706 -0.75465,-1.17651 -0.909185,-1.88961 -0.154535,-0.713099 -0.231755,-1.48558 -0.231755,-2.31745 0,-0.332786 0,-0.671454 0,-1.0161 0,-0.344644 0,-0.683407 0,-1.0161 0,-2.04415 0.112889,-4.03479 0.338668,-5.97193 0.231755,-1.93714 0.606187,-2.90571 1.13496,-2.90571l1.97281 0c0.647738,0 1.0696,0.0950546 1.25981,0.285164 0.118866,0.118866 0.15444,0.344644 0.106913,0.67743 -0.07722,0.665572 -0.15444,1.31919 -0.225778,1.96095 -0.231755,2.18673 -0.344644,4.2546 -0.344644,6.2036 0,0.380313 0,0.760627 0,1.14094 0,0.380313 0,0.760627 0,1.14094 0,0.713005 0.0415508,1.34291 0.124747,1.88961 0.0831965,0.546612 0.208039,0.903209 0.374432,1.0696 0.166298,0.166298 0.44558,0.285164 0.837847,0.356502 0.392171,0.0713384 0.837847,0.106913 1.33693,0.106913 0.950736,0 1.5925,-0.100936 1.92528,-0.302998 0.332786,-0.202062 0.558565,-0.534848 0.67743,-0.998263 0.118866,-0.46351 0.178251,-1.00424 0.178251,-1.62228 0,-0.451557 -0.0118581,-0.921043 -0.0356692,-1.40827 -0.0237162,-0.487226 -0.0475273,-0.980429 -0.0712435,-1.47961 0,-4.37346 0.0593854,-6.9702 0.178251,-7.79021 0.118866,-0.820012 0.499084,-1.23002 1.14085,-1.23002l1.96095 0c0.641761,0 1.05774,0.0950546 1.24785,0.285164 0.118866,0.118866 0.154535,0.344644 0.107008,0.67743 -0.237731,1.75889 -0.38629,3.28603 -0.445675,4.58141 -0.0594803,1.29548 -0.089173,2.48982 -0.089173,3.58314l0 1.64012c0,0.808059 -0.0415508,1.5093 -0.124747,2.10353 -0.0831965,0.594234 -0.255566,1.24785 -0.517014,1.96086 -0.142582,0.427841 -0.778366,0.75465 -1.90745,0.980524 -1.12899,0.225778 -2.4422,0.338668 -3.93964,0.338668 -1.54497,0 -2.87602,-0.0890781 -3.99315,-0.267424 -1.11713,-0.178251 -1.80642,-0.433722 -2.06787,-0.766508z"/>
    <path id="_7148224012" class="fil6" d="M48.3872 67.9659l-0.855681 -0.748769c1.11713,-1.85394 2.23426,-3.1018 3.35139,-3.74356 0.665572,-0.380313 1.46177,-0.570423 2.38879,-0.570423 0.475368,0 0.926925,0.0653619 1.35477,0.196086 0.427841,0.130724 0.897327,0.279282 1.40836,0.445675 0.511037,0.166298 1.0161,0.249495 1.51518,0.249495 1.0696,0 1.88971,-0.475368 2.46013,-1.4261 0.427841,-0.736816 0.641761,-1.5925 0.641761,-2.56704 0,-0.760532 -0.273401,-1.39043 -0.820012,-1.88961 -0.546706,-0.499084 -1.33105,-0.748674 -2.35312,-0.748674 -0.237731,0 -0.505061,0.0237162 -0.802178,0.0713384 -0.297117,0.0475273 -0.564541,0.0950546 -0.802272,0.142582 -1.49735,0.308975 -2.72148,0.46351 -3.67222,0.46351 -0.974547,0 -1.83023,-0.261448 -2.56704,-0.784438 -1.02207,-0.713005 -1.53311,-1.80642 -1.53311,-3.28005 0,-1.94909 0.938878,-3.33953 2.81663,-4.1714 1.18847,-0.52299 2.61457,-0.784438 4.27841,-0.784438 1.75889,0 3.42263,0.392266 4.99141,1.17661 1.40239,0.713005 2.10353,1.31919 2.10353,1.81828 0,0.21392 -0.487226,0.546706 -1.46177,0.998263 -0.974547,0.451652 -1.67569,0.67743 -2.10353,0.67743 -0.0713384,0 -0.124747,-0.0356692 -0.160417,-0.106913 -0.0356692,-0.0713384 -0.1367,-0.320928 -0.303093,-0.748769 -0.285259,-0.713005 -0.546706,-1.21218 -0.784343,-1.49744 -0.451652,-0.570423 -1.02207,-0.855681 -1.71136,-0.855681 -0.950736,0 -1.69353,0.255566 -2.22838,0.766603 -0.534753,0.511037 -0.802178,1.18249 -0.802178,2.01436 0,0.855681 0.314951,1.55095 0.944854,2.0857 0.629903,0.534848 1.49147,0.802272 2.58488,0.802272 0.380219,0 0.647643,-0.011953 0.802178,-0.0356692 0.15444,-0.0238111 0.546706,-0.112889 1.17651,-0.267424 0.629903,-0.154535 1.17661,-0.29114 1.64002,-0.410006 0.46351,-0.118866 0.873516,-0.178251 1.23011,-0.178251 1.54497,0 2.69767,0.570423 3.4583,1.71136 0.546706,0.83187 0.820012,1.75889 0.820012,2.78096 0,1.35477 -0.427841,2.5789 -1.28352,3.67222 -1.25971,1.5925 -3.19685,2.38879 -5.81142,2.38879 -0.475368,0 -0.915067,-0.0356692 -1.31919,-0.107008 -0.594234,-0.142582 -1.04579,-0.237637 -1.35477,-0.285164l-1.4262 -0.107008c-1.14085,0 -2.12725,0.202062 -2.95922,0.606092 -0.570423,0.285259 -1.18837,0.736816 -1.85394,1.35486l-0.998263 0.891351z"/>
    <path id="_71482240123" class="fil6" d="M68.1034 67.9659l-0.855681 -0.748769c1.11713,-1.85394 2.23426,-3.1018 3.35139,-3.74356 0.665572,-0.380313 1.46177,-0.570423 2.38879,-0.570423 0.475368,0 0.926925,0.0653619 1.35477,0.196086 0.427841,0.130724 0.897327,0.279282 1.40836,0.445675 0.511037,0.166298 1.0161,0.249495 1.51518,0.249495 1.0696,0 1.88971,-0.475368 2.46013,-1.4261 0.427841,-0.736816 0.641761,-1.5925 0.641761,-2.56704 0,-0.760532 -0.273401,-1.39043 -0.820012,-1.88961 -0.546706,-0.499084 -1.33105,-0.748674 -2.35312,-0.748674 -0.237731,0 -0.505061,0.0237162 -0.802178,0.0713384 -0.297117,0.0475273 -0.564541,0.0950546 -0.802272,0.142582 -1.49735,0.308975 -2.72148,0.46351 -3.67222,0.46351 -0.974547,0 -1.83023,-0.261448 -2.56704,-0.784438 -1.02207,-0.713005 -1.53311,-1.80642 -1.53311,-3.28005 0,-1.94909 0.938878,-3.33953 2.81663,-4.1714 1.18847,-0.52299 2.61457,-0.784438 4.27841,-0.784438 1.75889,0 3.42263,0.392266 4.99141,1.17661 1.40239,0.713005 2.10353,1.31919 2.10353,1.81828 0,0.21392 -0.487226,0.546706 -1.46177,0.998263 -0.974547,0.451652 -1.67569,0.67743 -2.10353,0.67743 -0.0713384,0 -0.124747,-0.0356692 -0.160417,-0.106913 -0.0356692,-0.0713384 -0.1367,-0.320928 -0.303093,-0.748769 -0.285259,-0.713005 -0.546706,-1.21218 -0.784343,-1.49744 -0.451652,-0.570423 -1.02207,-0.855681 -1.71136,-0.855681 -0.950736,0 -1.69353,0.255566 -2.22838,0.766603 -0.534753,0.511037 -0.802178,1.18249 -0.802178,2.01436 0,0.855681 0.314951,1.55095 0.944854,2.0857 0.629903,0.534848 1.49147,0.802272 2.58488,0.802272 0.380219,0 0.647643,-0.011953 0.802178,-0.0356692 0.15444,-0.0238111 0.546706,-0.112889 1.17651,-0.267424 0.629903,-0.154535 1.17661,-0.29114 1.64002,-0.410006 0.46351,-0.118866 0.873516,-0.178251 1.23011,-0.178251 1.54497,0 2.69767,0.570423 3.4583,1.71136 0.546706,0.83187 0.820012,1.75889 0.820012,2.78096 0,1.35477 -0.427841,2.5789 -1.28352,3.67222 -1.25971,1.5925 -3.19685,2.38879 -5.81142,2.38879 -0.475368,0 -0.915067,-0.0356692 -1.31919,-0.107008 -0.594234,-0.142582 -1.04579,-0.237637 -1.35477,-0.285164l-1.4262 -0.107008c-1.14085,0 -2.12725,0.202062 -2.95922,0.606092 -0.570423,0.285259 -1.18837,0.736816 -1.85394,1.35486l-0.998263 0.891351z"/>
    <path id="_714822401234" class="fil6" d="M91.7415 64.9353l-1.56869 0c-0.427841,0 -0.724958,-0.142582 -0.891351,-0.427841 -0.166393,-0.29114 -0.24959,-0.986405 -0.24959,-2.0857 0,-1.00424 -0.0296927,-2.28179 -0.0890781,-3.83871 -0.0594803,-1.55683 -0.089173,-2.47787 -0.089173,-2.76303 0,-2.97117 0.0950546,-4.83697 0.285259,-5.60357 0.184133,-0.766508 0.528777,-1.14682 1.02198,-1.14682l1.13496 0 1.37867 0 0.356502 0c0.302998,0.0475273 0.457533,0.21392 0.457533,0.499179 -0.130724,0.671454 -0.24959,1.49744 -0.350621,2.47189 -0.100936,0.980524 -0.148558,2.21054 -0.148558,3.69015 0,2.05601 0.0297876,3.57717 0.089173,4.56357 0.0593854,0.992382 0.196086,2.21642 0.410006,3.67232 0.0713384,0.386195 0.0118581,0.641761 -0.178251,0.772485 -0.190204,0.130724 -0.713099,0.196086 -1.56878,0.196086zm-1.57466 -22.0337l1.12899 0 1.73517 0c0.302998,0 0.457533,0.166393 0.457533,0.493203l0 1.57476 0 1.54497c0,0.350526 -0.154535,0.522895 -0.457533,0.522895l-0.356502 0 -1.37867 0 -1.12899 0c-0.356502,0 -0.576399,-0.107008 -0.671454,-0.320928 -0.0950546,-0.207944 -0.142582,-0.808059 -0.142582,-1.80044 0,-0.944854 0.0593854,-1.51528 0.178251,-1.71136 0.118866,-0.202062 0.32681,-0.303093 0.635785,-0.303093z"/>
    <path id="_7148224012345" class="fil6" d="M103.364 49.2123l3.45839 0c0.237637,0 0.380313,0.0593854 0.427841,0.178251 0,0.261448 0.00597649,0.469392 0.0178346,0.623926 0.0118581,0.15444 0.07722,0.469392 0.196086,0.94476l0.534753 1.96095 0.24959 0.998263c0.760627,3.04241 1.44992,5.49059 2.06787,7.34454 0.404124,1.14094 0.808154,2.26993 1.21228,3.38706 0,0.190204 -0.225873,0.285259 -0.67743,0.285259l-3.45839 0c-0.166393,0 -0.279282,-0.142582 -0.338668,-0.427841 -0.0594803,-0.285259 -0.101031,-0.534753 -0.124842,-0.748674 -0.142582,-0.404124 -0.261448,-0.772485 -0.356502,-1.10527l-0.392171 -1.31919 -0.427841 -1.53311c-0.499179,1.66384 -1.11713,2.9355 -1.85394,3.8149 -0.950736,1.14094 -2.11549,1.71136 -3.49406,1.71136 -1.28352,0 -2.24612,-0.522895 -2.88788,-1.56869 -0.499179,-0.808154 -0.748674,-1.75889 -0.748674,-2.8523 0,-1.11713 0.546612,-2.44818 1.64002,-3.99315 0.380313,-0.546706 1.24785,-1.5925 2.60262,-3.13747 0.118866,-0.142582 0.606187,-0.67743 1.46187,-1.60445 0.380219,-0.40403 0.570423,-0.724863 0.570423,-0.962594 0,-0.142582 -0.0178346,-0.303093 -0.0535038,-0.481344 -0.0356692,-0.178251 -0.0950546,-0.392171 -0.178251,-0.641761 -0.0831965,-0.249495 -0.124747,-0.48125 -0.124747,-0.69517 0,-0.118866 0.225778,-0.178251 0.677335,-0.178251zm0.285259 3.31572c-0.974547,1.0696 -1.7827,2.18075 -2.42446,3.33355 -0.641761,1.1528 -0.962594,2.10951 -0.962594,2.87004 0,0.570517 0.160417,1.09939 0.481344,1.58662 0.320833,0.487226 0.825894,0.730839 1.51528,0.730839 0.879398,0 1.60436,-0.332691 2.17478,-0.998263 0.475368,-0.546706 0.713099,-1.12899 0.713099,-1.74703 0,-0.380219 -0.0713384,-0.808059 -0.21392,-1.28343 -0.142582,-0.475463 -0.261448,-0.867634 -0.356502,-1.17661l-0.427841 -1.49744 -0.499179 -1.81828z"/>
    <path id="_71482240123456" class="fil6" d="M115.986 65.0066l-0.998263 0.0355743c-0.451557,0 -0.760627,-0.273306 -0.926925,-0.820012 -0.261543,-0.926925 -0.392266,-2.89974 -0.392266,-5.91843 0,-1.02198 -0.0118581,-1.98467 -0.0355743,-2.88788 -0.0238111,-0.903209 -0.0476222,-1.79456 -0.0713384,-2.67396 0,-1.30733 0.0713384,-2.26993 0.21392,-2.88797 0.142582,-0.61795 0.362479,-0.962594 0.659596,-1.03393 0.297117,-0.0712435 0.516919,-0.106913 0.659596,-0.106913 0.142582,0 0.249495,0 0.320833,0 0.594234,0 1.03393,0.166393 1.31919,0.499179 0.0950546,0.0950546 0.190109,0.273306 0.285259,0.534753 0.261448,-0.427841 0.75465,-0.724958 1.47961,-0.891351 0.724863,-0.166393 1.62219,-0.24959 2.69179,-0.24959 0.855681,0 1.54497,0.0238111 2.06787,0.0713384 0.522895,0.0475273 0.986405,0.107008 1.39043,0.178251 0.118866,-0.0237162 0.297117,-0.0356692 0.534848,-0.0356692 0.713005,0 1.30724,0.154535 1.78261,0.46351 0.475368,0.314951 0.713099,0.635879 0.713099,0.968571 -0.142582,1.24197 -0.273306,2.5789 -0.392171,4.01098 -0.118866,1.43208 -0.178251,2.84035 -0.178251,4.2249 0,0.742792 0.0237162,1.45589 0.0712435,2.15106 0.0475273,0.689288 0.101031,1.26569 0.160511,1.71734 0.0593854,0.451557 0.148558,0.992382 0.267329,1.61033 0.0475273,0.237637 0.0713384,0.451557 0.0713384,0.647738 0,0.308975 -0.142582,0.487226 -0.427841,0.534753l-0.356502 0c-0.190204,-0.0475273 -0.374432,-0.0831965 -0.552683,-0.107008 -0.178251,-0.0237162 -0.386195,-0.0355743 -0.623926,-0.0355743l-0.392171 0 -1.03393 0.0355743c-0.522895,0 -0.867539,-0.362384 -1.03393,-1.08734 -0.166393,-0.724958 -0.24959,-2.60869 -0.24959,-5.6511 0,-1.21218 0.0831965,-2.39467 0.24959,-3.54747 0.166393,-1.1528 0.344644,-2.35901 0.534753,-3.61881 0,-0.380219 -0.0831965,-0.641761 -0.249495,-0.784343 -0.261448,-0.166393 -0.582376,-0.29114 -0.962689,-0.374337 -0.380313,-0.0831965 -0.784343,-0.124842 -1.21218,-0.124842 -0.665572,0 -1.41425,0.0951495 -2.24612,0.285259 -0.261543,0.0475273 -0.606187,0.142582 -1.03403,0.285259l-0.142582 3.28005c0,0.713099 -0.0296927,1.62228 -0.0890781,2.72746 -0.0594803,1.10527 -0.089173,1.77672 -0.089173,2.01446 0,1.09332 0.0178346,1.8123 0.0535038,2.15704 0.0356692,0.344644 0.136605,1.11115 0.302998,2.29962 0.0713384,0.40403 0.130724,0.689288 0.178251,0.855681 0.0476222,0.166298 0.0713384,0.297117 0.0713384,0.392171 0,0.237637 -0.0950546,0.46351 -0.285259,0.67743 -0.190109,0.213825 -0.487226,0.320833 -0.891256,0.320833 -0.166393,0 -0.392171,-0.0238111 -0.67743,-0.0713384 -0.285259,-0.0475273 -0.46351,-0.0712435 -0.534848,-0.0712435z"/>
    <path id="_70871080" class="fil7" d="M27.8264 64.2334l-8.73497 0 0 -1.4261 1.3191 0c0,-3.70798 -0.736816,-6.44133 -2.21045,-8.20022 -1.21218,-1.44992 -2.81663,-2.17487 -4.81316,-2.17487l0 10.3751 1.64002 0 0 1.4261 -9.69766 0 0 -1.4261 2.78096 0 0 -20.8571 -2.78096 0 0 -1.4262 15.2239 0c1.90147,0 3.16118,0.130724 3.77923,0.392266 0.950736,0.40403 1.4261,1.28343 1.4261,2.63829 0,1.85394 -0.736816,3.47025 -2.21054,4.84883 -1.75889,1.64002 -4.38532,2.68591 -7.87929,3.13747l0 0.499179c2.82849,0 5.21719,0.83187 7.16628,2.49571 2.28179,1.949 3.42273,4.70625 3.42273,8.27155l1.56869 0 0 1.4261zm-7.9863 -20.2153c0,-0.879492 -0.332786,-1.47373 -0.998263,-1.7827 -0.404124,-0.190109 -0.938878,-0.285164 -1.60445,-0.285164l-3.85047 0 0 7.9863c1.83013,0 3.38706,-0.629903 4.67048,-1.88961 1.18847,-1.16466 1.7827,-2.50766 1.7827,-4.02882z"/>
    <path id="_708710801" class="fil7" d="M31.4274 63.5916c-0.451652,-0.546706 -0.75465,-1.17651 -0.909185,-1.88961 -0.154535,-0.713099 -0.231755,-1.48558 -0.231755,-2.31745 0,-0.332786 0,-0.671454 0,-1.0161 0,-0.344644 0,-0.683407 0,-1.0161 0,-2.04415 0.112889,-4.03479 0.338668,-5.97193 0.231755,-1.93714 0.606187,-2.90571 1.13496,-2.90571l1.97281 0c0.647738,0 1.0696,0.0950546 1.25981,0.285164 0.118866,0.118866 0.15444,0.344644 0.106913,0.67743 -0.07722,0.665572 -0.15444,1.31919 -0.225778,1.96095 -0.231755,2.18673 -0.344644,4.2546 -0.344644,6.2036 0,0.380313 0,0.760627 0,1.14094 0,0.380313 0,0.760627 0,1.14094 0,0.713005 0.0415508,1.34291 0.124747,1.88961 0.0831965,0.546612 0.208039,0.903209 0.374432,1.0696 0.166298,0.166298 0.44558,0.285164 0.837847,0.356502 0.392171,0.0713384 0.837847,0.106913 1.33693,0.106913 0.950736,0 1.5925,-0.100936 1.92528,-0.302998 0.332786,-0.202062 0.558565,-0.534848 0.67743,-0.998263 0.118866,-0.46351 0.178251,-1.00424 0.178251,-1.62228 0,-0.451557 -0.0118581,-0.921043 -0.0356692,-1.40827 -0.0237162,-0.487226 -0.0475273,-0.980429 -0.0712435,-1.47961 0,-4.37346 0.0593854,-6.9702 0.178251,-7.79021 0.118866,-0.820012 0.499084,-1.23002 1.14085,-1.23002l1.96095 0c0.641761,0 1.05774,0.0950546 1.24785,0.285164 0.118866,0.118866 0.154535,0.344644 0.107008,0.67743 -0.237731,1.75889 -0.38629,3.28603 -0.445675,4.58141 -0.0594803,1.29548 -0.089173,2.48982 -0.089173,3.58314l0 1.64012c0,0.808059 -0.0415508,1.5093 -0.124747,2.10353 -0.0831965,0.594234 -0.255566,1.24785 -0.517014,1.96086 -0.142582,0.427841 -0.778366,0.75465 -1.90745,0.980524 -1.12899,0.225778 -2.4422,0.338668 -3.93964,0.338668 -1.54497,0 -2.87602,-0.0890781 -3.99315,-0.267424 -1.11713,-0.178251 -1.80642,-0.433722 -2.06787,-0.766508z"/>
    <path id="_7087108012" class="fil7" d="M47.6853 67.264l-0.855681 -0.748769c1.11713,-1.85394 2.23426,-3.1018 3.35139,-3.74356 0.665572,-0.380313 1.46177,-0.570423 2.38879,-0.570423 0.475368,0 0.926925,0.0653619 1.35477,0.196086 0.427841,0.130724 0.897327,0.279282 1.40836,0.445675 0.511037,0.166298 1.0161,0.249495 1.51518,0.249495 1.0696,0 1.88971,-0.475368 2.46013,-1.4261 0.427841,-0.736816 0.641761,-1.5925 0.641761,-2.56704 0,-0.760532 -0.273401,-1.39043 -0.820012,-1.88961 -0.546706,-0.499084 -1.33105,-0.748674 -2.35312,-0.748674 -0.237731,0 -0.505061,0.0237162 -0.802178,0.0713384 -0.297117,0.0475273 -0.564541,0.0950546 -0.802272,0.142582 -1.49735,0.308975 -2.72148,0.46351 -3.67222,0.46351 -0.974547,0 -1.83023,-0.261448 -2.56704,-0.784438 -1.02207,-0.713005 -1.53311,-1.80642 -1.53311,-3.28005 0,-1.94909 0.938878,-3.33953 2.81663,-4.1714 1.18847,-0.52299 2.61457,-0.784438 4.27841,-0.784438 1.75889,0 3.42263,0.392266 4.99141,1.17661 1.40239,0.713005 2.10353,1.31919 2.10353,1.81828 0,0.21392 -0.487226,0.546706 -1.46177,0.998263 -0.974547,0.451652 -1.67569,0.67743 -2.10353,0.67743 -0.0713384,0 -0.124747,-0.0356692 -0.160417,-0.106913 -0.0356692,-0.0713384 -0.1367,-0.320928 -0.303093,-0.748769 -0.285259,-0.713005 -0.546706,-1.21218 -0.784343,-1.49744 -0.451652,-0.570423 -1.02207,-0.855681 -1.71136,-0.855681 -0.950736,0 -1.69353,0.255566 -2.22838,0.766603 -0.534753,0.511037 -0.802178,1.18249 -0.802178,2.01436 0,0.855681 0.314951,1.55095 0.944854,2.0857 0.629903,0.534848 1.49147,0.802272 2.58488,0.802272 0.380219,0 0.647643,-0.011953 0.802178,-0.0356692 0.15444,-0.0238111 0.546706,-0.112889 1.17651,-0.267424 0.629903,-0.154535 1.17661,-0.29114 1.64002,-0.410006 0.46351,-0.118866 0.873516,-0.178251 1.23011,-0.178251 1.54497,0 2.69767,0.570423 3.4583,1.71136 0.546706,0.83187 0.820012,1.75889 0.820012,2.78096 0,1.35477 -0.427841,2.5789 -1.28352,3.67222 -1.25971,1.5925 -3.19685,2.38879 -5.81142,2.38879 -0.475368,0 -0.915067,-0.0356692 -1.31919,-0.107008 -0.594234,-0.142582 -1.04579,-0.237637 -1.35477,-0.285164l-1.4262 -0.107008c-1.14085,0 -2.12725,0.202062 -2.95922,0.606092 -0.570423,0.285259 -1.18837,0.736816 -1.85394,1.35486l-0.998263 0.891351z"/>
    <path id="_70871080123" class="fil7" d="M67.4015 67.264l-0.855681 -0.748769c1.11713,-1.85394 2.23426,-3.1018 3.35139,-3.74356 0.665572,-0.380313 1.46177,-0.570423 2.38879,-0.570423 0.475368,0 0.926925,0.0653619 1.35477,0.196086 0.427841,0.130724 0.897327,0.279282 1.40836,0.445675 0.511037,0.166298 1.0161,0.249495 1.51518,0.249495 1.0696,0 1.88971,-0.475368 2.46013,-1.4261 0.427841,-0.736816 0.641761,-1.5925 0.641761,-2.56704 0,-0.760532 -0.273401,-1.39043 -0.820012,-1.88961 -0.546706,-0.499084 -1.33105,-0.748674 -2.35312,-0.748674 -0.237731,0 -0.505061,0.0237162 -0.802178,0.0713384 -0.297117,0.0475273 -0.564541,0.0950546 -0.802272,0.142582 -1.49735,0.308975 -2.72148,0.46351 -3.67222,0.46351 -0.974547,0 -1.83023,-0.261448 -2.56704,-0.784438 -1.02207,-0.713005 -1.53311,-1.80642 -1.53311,-3.28005 0,-1.94909 0.938878,-3.33953 2.81663,-4.1714 1.18847,-0.52299 2.61457,-0.784438 4.27841,-0.784438 1.75889,0 3.42263,0.392266 4.99141,1.17661 1.40239,0.713005 2.10353,1.31919 2.10353,1.81828 0,0.21392 -0.487226,0.546706 -1.46177,0.998263 -0.974547,0.451652 -1.67569,0.67743 -2.10353,0.67743 -0.0713384,0 -0.124747,-0.0356692 -0.160417,-0.106913 -0.0356692,-0.0713384 -0.1367,-0.320928 -0.303093,-0.748769 -0.285259,-0.713005 -0.546706,-1.21218 -0.784343,-1.49744 -0.451652,-0.570423 -1.02207,-0.855681 -1.71136,-0.855681 -0.950736,0 -1.69353,0.255566 -2.22838,0.766603 -0.534753,0.511037 -0.802178,1.18249 -0.802178,2.01436 0,0.855681 0.314951,1.55095 0.944854,2.0857 0.629903,0.534848 1.49147,0.802272 2.58488,0.802272 0.380219,0 0.647643,-0.011953 0.802178,-0.0356692 0.15444,-0.0238111 0.546706,-0.112889 1.17651,-0.267424 0.629903,-0.154535 1.17661,-0.29114 1.64002,-0.410006 0.46351,-0.118866 0.873516,-0.178251 1.23011,-0.178251 1.54497,0 2.69767,0.570423 3.4583,1.71136 0.546706,0.83187 0.820012,1.75889 0.820012,2.78096 0,1.35477 -0.427841,2.5789 -1.28352,3.67222 -1.25971,1.5925 -3.19685,2.38879 -5.81142,2.38879 -0.475368,0 -0.915067,-0.0356692 -1.31919,-0.107008 -0.594234,-0.142582 -1.04579,-0.237637 -1.35477,-0.285164l-1.4262 -0.107008c-1.14085,0 -2.12725,0.202062 -2.95922,0.606092 -0.570423,0.285259 -1.18837,0.736816 -1.85394,1.35486l-0.998263 0.891351z"/>
    <path id="_708710801234" class="fil7" d="M91.0396 64.2334l-1.56869 0c-0.427841,0 -0.724958,-0.142582 -0.891351,-0.427841 -0.166393,-0.29114 -0.24959,-0.986405 -0.24959,-2.0857 0,-1.00424 -0.0296927,-2.28179 -0.0890781,-3.83871 -0.0594803,-1.55683 -0.089173,-2.47787 -0.089173,-2.76303 0,-2.97117 0.0950546,-4.83697 0.285259,-5.60357 0.184133,-0.766508 0.528777,-1.14682 1.02198,-1.14682l1.13496 0 1.37867 0 0.356502 0c0.302998,0.0475273 0.457533,0.21392 0.457533,0.499179 -0.130724,0.671454 -0.24959,1.49744 -0.350621,2.47189 -0.100936,0.980524 -0.148558,2.21054 -0.148558,3.69015 0,2.05601 0.0297876,3.57717 0.089173,4.56357 0.0593854,0.992382 0.196086,2.21642 0.410006,3.67232 0.0713384,0.386195 0.0118581,0.641761 -0.178251,0.772485 -0.190204,0.130724 -0.713099,0.196086 -1.56878,0.196086zm-1.57466 -22.0337l1.12899 0 1.73517 0c0.302998,0 0.457533,0.166393 0.457533,0.493203l0 1.57476 0 1.54497c0,0.350526 -0.154535,0.522895 -0.457533,0.522895l-0.356502 0 -1.37867 0 -1.12899 0c-0.356502,0 -0.576399,-0.107008 -0.671454,-0.320928 -0.0950546,-0.207944 -0.142582,-0.808059 -0.142582,-1.80044 0,-0.944854 0.0593854,-1.51528 0.178251,-1.71136 0.118866,-0.202062 0.32681,-0.303093 0.635785,-0.303093z"/>
    <path id="_7087108012345" class="fil7" d="M102.663 48.5104l3.45839 0c0.237637,0 0.380313,0.0593854 0.427841,0.178251 0,0.261448 0.00597649,0.469392 0.0178346,0.623926 0.0118581,0.15444 0.07722,0.469392 0.196086,0.94476l0.534753 1.96095 0.24959 0.998263c0.760627,3.04241 1.44992,5.49059 2.06787,7.34454 0.404124,1.14094 0.808154,2.26993 1.21228,3.38706 0,0.190204 -0.225873,0.285259 -0.67743,0.285259l-3.45839 0c-0.166393,0 -0.279282,-0.142582 -0.338668,-0.427841 -0.0594803,-0.285259 -0.101031,-0.534753 -0.124842,-0.748674 -0.142582,-0.404124 -0.261448,-0.772485 -0.356502,-1.10527l-0.392171 -1.31919 -0.427841 -1.53311c-0.499179,1.66384 -1.11713,2.9355 -1.85394,3.8149 -0.950736,1.14094 -2.11549,1.71136 -3.49406,1.71136 -1.28352,0 -2.24612,-0.522895 -2.88788,-1.56869 -0.499179,-0.808154 -0.748674,-1.75889 -0.748674,-2.8523 0,-1.11713 0.546612,-2.44818 1.64002,-3.99315 0.380313,-0.546706 1.24785,-1.5925 2.60262,-3.13747 0.118866,-0.142582 0.606187,-0.67743 1.46187,-1.60445 0.380219,-0.40403 0.570423,-0.724863 0.570423,-0.962594 0,-0.142582 -0.0178346,-0.303093 -0.0535038,-0.481344 -0.0356692,-0.178251 -0.0950546,-0.392171 -0.178251,-0.641761 -0.0831965,-0.249495 -0.124747,-0.48125 -0.124747,-0.69517 0,-0.118866 0.225778,-0.178251 0.677335,-0.178251zm0.285259 3.31572c-0.974547,1.0696 -1.7827,2.18075 -2.42446,3.33355 -0.641761,1.1528 -0.962594,2.10951 -0.962594,2.87004 0,0.570517 0.160417,1.09939 0.481344,1.58662 0.320833,0.487226 0.825894,0.730839 1.51528,0.730839 0.879398,0 1.60436,-0.332691 2.17478,-0.998263 0.475368,-0.546706 0.713099,-1.12899 0.713099,-1.74703 0,-0.380219 -0.0713384,-0.808059 -0.21392,-1.28343 -0.142582,-0.475463 -0.261448,-0.867634 -0.356502,-1.17661l-0.427841 -1.49744 -0.499179 -1.81828z"/>
    <path id="_70871080123456" class="fil7" d="M115.284 64.3047l-0.998263 0.0355743c-0.451557,0 -0.760627,-0.273306 -0.926925,-0.820012 -0.261543,-0.926925 -0.392266,-2.89974 -0.392266,-5.91843 0,-1.02198 -0.0118581,-1.98467 -0.0355743,-2.88788 -0.0238111,-0.903209 -0.0476222,-1.79456 -0.0713384,-2.67396 0,-1.30733 0.0713384,-2.26993 0.21392,-2.88797 0.142582,-0.61795 0.362479,-0.962594 0.659596,-1.03393 0.297117,-0.0712435 0.516919,-0.106913 0.659596,-0.106913 0.142582,0 0.249495,0 0.320833,0 0.594234,0 1.03393,0.166393 1.31919,0.499179 0.0950546,0.0950546 0.190109,0.273306 0.285259,0.534753 0.261448,-0.427841 0.75465,-0.724958 1.47961,-0.891351 0.724863,-0.166393 1.62219,-0.24959 2.69179,-0.24959 0.855681,0 1.54497,0.0238111 2.06787,0.0713384 0.522895,0.0475273 0.986405,0.107008 1.39043,0.178251 0.118866,-0.0237162 0.297117,-0.0356692 0.534848,-0.0356692 0.713005,0 1.30724,0.154535 1.78261,0.46351 0.475368,0.314951 0.713099,0.635879 0.713099,0.968571 -0.142582,1.24197 -0.273306,2.5789 -0.392171,4.01098 -0.118866,1.43208 -0.178251,2.84035 -0.178251,4.2249 0,0.742792 0.0237162,1.45589 0.0712435,2.15106 0.0475273,0.689288 0.101031,1.26569 0.160511,1.71734 0.0593854,0.451557 0.148558,0.992382 0.267329,1.61033 0.0475273,0.237637 0.0713384,0.451557 0.0713384,0.647738 0,0.308975 -0.142582,0.487226 -0.427841,0.534753l-0.356502 0c-0.190204,-0.0475273 -0.374432,-0.0831965 -0.552683,-0.107008 -0.178251,-0.0237162 -0.386195,-0.0355743 -0.623926,-0.0355743l-0.392171 0 -1.03393 0.0355743c-0.522895,0 -0.867539,-0.362384 -1.03393,-1.08734 -0.166393,-0.724958 -0.24959,-2.60869 -0.24959,-5.6511 0,-1.21218 0.0831965,-2.39467 0.24959,-3.54747 0.166393,-1.1528 0.344644,-2.35901 0.534753,-3.61881 0,-0.380219 -0.0831965,-0.641761 -0.249495,-0.784343 -0.261448,-0.166393 -0.582376,-0.29114 -0.962689,-0.374337 -0.380313,-0.0831965 -0.784343,-0.124842 -1.21218,-0.124842 -0.665572,0 -1.41425,0.0951495 -2.24612,0.285259 -0.261543,0.0475273 -0.606187,0.142582 -1.03403,0.285259l-0.142582 3.28005c0,0.713099 -0.0296927,1.62228 -0.0890781,2.72746 -0.0594803,1.10527 -0.089173,1.77672 -0.089173,2.01446 0,1.09332 0.0178346,1.8123 0.0535038,2.15704 0.0356692,0.344644 0.136605,1.11115 0.302998,2.29962 0.0713384,0.40403 0.130724,0.689288 0.178251,0.855681 0.0476222,0.166298 0.0713384,0.297117 0.0713384,0.392171 0,0.237637 -0.0950546,0.46351 -0.285259,0.67743 -0.190109,0.213825 -0.487226,0.320833 -0.891256,0.320833 -0.166393,0 -0.392171,-0.0238111 -0.67743,-0.0713384 -0.285259,-0.0475273 -0.46351,-0.0712435 -0.534848,-0.0712435z"/>
    <path id="_708710801234567" class="fil8 str2" d="M27.8264 64.2334l-8.73497 0 0 -1.4261 1.3191 0c0,-3.70798 -0.736816,-6.44133 -2.21045,-8.20022 -1.21218,-1.44992 -2.81663,-2.17487 -4.81316,-2.17487l0 10.3751 1.64002 0 0 1.4261 -9.69766 0 0 -1.4261 2.78096 0 0 -20.8571 -2.78096 0 0 -1.4262 15.2239 0c1.90147,0 3.16118,0.130724 3.77923,0.392266 0.950736,0.40403 1.4261,1.28343 1.4261,2.63829 0,1.85394 -0.736816,3.47025 -2.21054,4.84883 -1.75889,1.64002 -4.38532,2.68591 -7.87929,3.13747l0 0.499179c2.82849,0 5.21719,0.83187 7.16628,2.49571 2.28179,1.949 3.42273,4.70625 3.42273,8.27155l1.56869 0 0 1.4261zm-7.9863 -20.2153c0,-0.879492 -0.332786,-1.47373 -0.998263,-1.7827 -0.404124,-0.190109 -0.938878,-0.285164 -1.60445,-0.285164l-3.85047 0 0 7.9863c1.83013,0 3.38706,-0.629903 4.67048,-1.88961 1.18847,-1.16466 1.7827,-2.50766 1.7827,-4.02882z"/>
    <path id="_7087108012345678" class="fil8 str2" d="M31.4274 63.5916c-0.451652,-0.546706 -0.75465,-1.17651 -0.909185,-1.88961 -0.154535,-0.713099 -0.231755,-1.48558 -0.231755,-2.31745 0,-0.332786 0,-0.671454 0,-1.0161 0,-0.344644 0,-0.683407 0,-1.0161 0,-2.04415 0.112889,-4.03479 0.338668,-5.97193 0.231755,-1.93714 0.606187,-2.90571 1.13496,-2.90571l1.97281 0c0.647738,0 1.0696,0.0950546 1.25981,0.285164 0.118866,0.118866 0.15444,0.344644 0.106913,0.67743 -0.07722,0.665572 -0.15444,1.31919 -0.225778,1.96095 -0.231755,2.18673 -0.344644,4.2546 -0.344644,6.2036 0,0.380313 0,0.760627 0,1.14094 0,0.380313 0,0.760627 0,1.14094 0,0.713005 0.0415508,1.34291 0.124747,1.88961 0.0831965,0.546612 0.208039,0.903209 0.374432,1.0696 0.166298,0.166298 0.44558,0.285164 0.837847,0.356502 0.392171,0.0713384 0.837847,0.106913 1.33693,0.106913 0.950736,0 1.5925,-0.100936 1.92528,-0.302998 0.332786,-0.202062 0.558565,-0.534848 0.67743,-0.998263 0.118866,-0.46351 0.178251,-1.00424 0.178251,-1.62228 0,-0.451557 -0.0118581,-0.921043 -0.0356692,-1.40827 -0.0237162,-0.487226 -0.0475273,-0.980429 -0.0712435,-1.47961 0,-4.37346 0.0593854,-6.9702 0.178251,-7.79021 0.118866,-0.820012 0.499084,-1.23002 1.14085,-1.23002l1.96095 0c0.641761,0 1.05774,0.0950546 1.24785,0.285164 0.118866,0.118866 0.154535,0.344644 0.107008,0.67743 -0.237731,1.75889 -0.38629,3.28603 -0.445675,4.58141 -0.0594803,1.29548 -0.089173,2.48982 -0.089173,3.58314l0 1.64012c0,0.808059 -0.0415508,1.5093 -0.124747,2.10353 -0.0831965,0.594234 -0.255566,1.24785 -0.517014,1.96086 -0.142582,0.427841 -0.778366,0.75465 -1.90745,0.980524 -1.12899,0.225778 -2.4422,0.338668 -3.93964,0.338668 -1.54497,0 -2.87602,-0.0890781 -3.99315,-0.267424 -1.11713,-0.178251 -1.80642,-0.433722 -2.06787,-0.766508z"/>
    <path id="_70871080123456789" class="fil8 str2" d="M47.6853 67.264l-0.855681 -0.748769c1.11713,-1.85394 2.23426,-3.1018 3.35139,-3.74356 0.665572,-0.380313 1.46177,-0.570423 2.38879,-0.570423 0.475368,0 0.926925,0.0653619 1.35477,0.196086 0.427841,0.130724 0.897327,0.279282 1.40836,0.445675 0.511037,0.166298 1.0161,0.249495 1.51518,0.249495 1.0696,0 1.88971,-0.475368 2.46013,-1.4261 0.427841,-0.736816 0.641761,-1.5925 0.641761,-2.56704 0,-0.760532 -0.273401,-1.39043 -0.820012,-1.88961 -0.546706,-0.499084 -1.33105,-0.748674 -2.35312,-0.748674 -0.237731,0 -0.505061,0.0237162 -0.802178,0.0713384 -0.297117,0.0475273 -0.564541,0.0950546 -0.802272,0.142582 -1.49735,0.308975 -2.72148,0.46351 -3.67222,0.46351 -0.974547,0 -1.83023,-0.261448 -2.56704,-0.784438 -1.02207,-0.713005 -1.53311,-1.80642 -1.53311,-3.28005 0,-1.94909 0.938878,-3.33953 2.81663,-4.1714 1.18847,-0.52299 2.61457,-0.784438 4.27841,-0.784438 1.75889,0 3.42263,0.392266 4.99141,1.17661 1.40239,0.713005 2.10353,1.31919 2.10353,1.81828 0,0.21392 -0.487226,0.546706 -1.46177,0.998263 -0.974547,0.451652 -1.67569,0.67743 -2.10353,0.67743 -0.0713384,0 -0.124747,-0.0356692 -0.160417,-0.106913 -0.0356692,-0.0713384 -0.1367,-0.320928 -0.303093,-0.748769 -0.285259,-0.713005 -0.546706,-1.21218 -0.784343,-1.49744 -0.451652,-0.570423 -1.02207,-0.855681 -1.71136,-0.855681 -0.950736,0 -1.69353,0.255566 -2.22838,0.766603 -0.534753,0.511037 -0.802178,1.18249 -0.802178,2.01436 0,0.855681 0.314951,1.55095 0.944854,2.0857 0.629903,0.534848 1.49147,0.802272 2.58488,0.802272 0.380219,0 0.647643,-0.011953 0.802178,-0.0356692 0.15444,-0.0238111 0.546706,-0.112889 1.17651,-0.267424 0.629903,-0.154535 1.17661,-0.29114 1.64002,-0.410006 0.46351,-0.118866 0.873516,-0.178251 1.23011,-0.178251 1.54497,0 2.69767,0.570423 3.4583,1.71136 0.546706,0.83187 0.820012,1.75889 0.820012,2.78096 0,1.35477 -0.427841,2.5789 -1.28352,3.67222 -1.25971,1.5925 -3.19685,2.38879 -5.81142,2.38879 -0.475368,0 -0.915067,-0.0356692 -1.31919,-0.107008 -0.594234,-0.142582 -1.04579,-0.237637 -1.35477,-0.285164l-1.4262 -0.107008c-1.14085,0 -2.12725,0.202062 -2.95922,0.606092 -0.570423,0.285259 -1.18837,0.736816 -1.85394,1.35486l-0.998263 0.891351z"/>
    <path id="_7087108012345678910" class="fil8 str2" d="M67.4015 67.264l-0.855681 -0.748769c1.11713,-1.85394 2.23426,-3.1018 3.35139,-3.74356 0.665572,-0.380313 1.46177,-0.570423 2.38879,-0.570423 0.475368,0 0.926925,0.0653619 1.35477,0.196086 0.427841,0.130724 0.897327,0.279282 1.40836,0.445675 0.511037,0.166298 1.0161,0.249495 1.51518,0.249495 1.0696,0 1.88971,-0.475368 2.46013,-1.4261 0.427841,-0.736816 0.641761,-1.5925 0.641761,-2.56704 0,-0.760532 -0.273401,-1.39043 -0.820012,-1.88961 -0.546706,-0.499084 -1.33105,-0.748674 -2.35312,-0.748674 -0.237731,0 -0.505061,0.0237162 -0.802178,0.0713384 -0.297117,0.0475273 -0.564541,0.0950546 -0.802272,0.142582 -1.49735,0.308975 -2.72148,0.46351 -3.67222,0.46351 -0.974547,0 -1.83023,-0.261448 -2.56704,-0.784438 -1.02207,-0.713005 -1.53311,-1.80642 -1.53311,-3.28005 0,-1.94909 0.938878,-3.33953 2.81663,-4.1714 1.18847,-0.52299 2.61457,-0.784438 4.27841,-0.784438 1.75889,0 3.42263,0.392266 4.99141,1.17661 1.40239,0.713005 2.10353,1.31919 2.10353,1.81828 0,0.21392 -0.487226,0.546706 -1.46177,0.998263 -0.974547,0.451652 -1.67569,0.67743 -2.10353,0.67743 -0.0713384,0 -0.124747,-0.0356692 -0.160417,-0.106913 -0.0356692,-0.0713384 -0.1367,-0.320928 -0.303093,-0.748769 -0.285259,-0.713005 -0.546706,-1.21218 -0.784343,-1.49744 -0.451652,-0.570423 -1.02207,-0.855681 -1.71136,-0.855681 -0.950736,0 -1.69353,0.255566 -2.22838,0.766603 -0.534753,0.511037 -0.802178,1.18249 -0.802178,2.01436 0,0.855681 0.314951,1.55095 0.944854,2.0857 0.629903,0.534848 1.49147,0.802272 2.58488,0.802272 0.380219,0 0.647643,-0.011953 0.802178,-0.0356692 0.15444,-0.0238111 0.546706,-0.112889 1.17651,-0.267424 0.629903,-0.154535 1.17661,-0.29114 1.64002,-0.410006 0.46351,-0.118866 0.873516,-0.178251 1.23011,-0.178251 1.54497,0 2.69767,0.570423 3.4583,1.71136 0.546706,0.83187 0.820012,1.75889 0.820012,2.78096 0,1.35477 -0.427841,2.5789 -1.28352,3.67222 -1.25971,1.5925 -3.19685,2.38879 -5.81142,2.38879 -0.475368,0 -0.915067,-0.0356692 -1.31919,-0.107008 -0.594234,-0.142582 -1.04579,-0.237637 -1.35477,-0.285164l-1.4262 -0.107008c-1.14085,0 -2.12725,0.202062 -2.95922,0.606092 -0.570423,0.285259 -1.18837,0.736816 -1.85394,1.35486l-0.998263 0.891351z"/>
    <path id="_708710801234567891011" class="fil8 str2" d="M91.0396 64.2334l-1.56869 0c-0.427841,0 -0.724958,-0.142582 -0.891351,-0.427841 -0.166393,-0.29114 -0.24959,-0.986405 -0.24959,-2.0857 0,-1.00424 -0.0296927,-2.28179 -0.0890781,-3.83871 -0.0594803,-1.55683 -0.089173,-2.47787 -0.089173,-2.76303 0,-2.97117 0.0950546,-4.83697 0.285259,-5.60357 0.184133,-0.766508 0.528777,-1.14682 1.02198,-1.14682l1.13496 0 1.37867 0 0.356502 0c0.302998,0.0475273 0.457533,0.21392 0.457533,0.499179 -0.130724,0.671454 -0.24959,1.49744 -0.350621,2.47189 -0.100936,0.980524 -0.148558,2.21054 -0.148558,3.69015 0,2.05601 0.0297876,3.57717 0.089173,4.56357 0.0593854,0.992382 0.196086,2.21642 0.410006,3.67232 0.0713384,0.386195 0.0118581,0.641761 -0.178251,0.772485 -0.190204,0.130724 -0.713099,0.196086 -1.56878,0.196086zm-1.57466 -22.0337l1.12899 0 1.73517 0c0.302998,0 0.457533,0.166393 0.457533,0.493203l0 1.57476 0 1.54497c0,0.350526 -0.154535,0.522895 -0.457533,0.522895l-0.356502 0 -1.37867 0 -1.12899 0c-0.356502,0 -0.576399,-0.107008 -0.671454,-0.320928 -0.0950546,-0.207944 -0.142582,-0.808059 -0.142582,-1.80044 0,-0.944854 0.0593854,-1.51528 0.178251,-1.71136 0.118866,-0.202062 0.32681,-0.303093 0.635785,-0.303093z"/>
    <path id="_70871080123456789101112" class="fil8 str2" d="M102.663 48.5104l3.45839 0c0.237637,0 0.380313,0.0593854 0.427841,0.178251 0,0.261448 0.00597649,0.469392 0.0178346,0.623926 0.0118581,0.15444 0.07722,0.469392 0.196086,0.94476l0.534753 1.96095 0.24959 0.998263c0.760627,3.04241 1.44992,5.49059 2.06787,7.34454 0.404124,1.14094 0.808154,2.26993 1.21228,3.38706 0,0.190204 -0.225873,0.285259 -0.67743,0.285259l-3.45839 0c-0.166393,0 -0.279282,-0.142582 -0.338668,-0.427841 -0.0594803,-0.285259 -0.101031,-0.534753 -0.124842,-0.748674 -0.142582,-0.404124 -0.261448,-0.772485 -0.356502,-1.10527l-0.392171 -1.31919 -0.427841 -1.53311c-0.499179,1.66384 -1.11713,2.9355 -1.85394,3.8149 -0.950736,1.14094 -2.11549,1.71136 -3.49406,1.71136 -1.28352,0 -2.24612,-0.522895 -2.88788,-1.56869 -0.499179,-0.808154 -0.748674,-1.75889 -0.748674,-2.8523 0,-1.11713 0.546612,-2.44818 1.64002,-3.99315 0.380313,-0.546706 1.24785,-1.5925 2.60262,-3.13747 0.118866,-0.142582 0.606187,-0.67743 1.46187,-1.60445 0.380219,-0.40403 0.570423,-0.724863 0.570423,-0.962594 0,-0.142582 -0.0178346,-0.303093 -0.0535038,-0.481344 -0.0356692,-0.178251 -0.0950546,-0.392171 -0.178251,-0.641761 -0.0831965,-0.249495 -0.124747,-0.48125 -0.124747,-0.69517 0,-0.118866 0.225778,-0.178251 0.677335,-0.178251zm0.285259 3.31572c-0.974547,1.0696 -1.7827,2.18075 -2.42446,3.33355 -0.641761,1.1528 -0.962594,2.10951 -0.962594,2.87004 0,0.570517 0.160417,1.09939 0.481344,1.58662 0.320833,0.487226 0.825894,0.730839 1.51528,0.730839 0.879398,0 1.60436,-0.332691 2.17478,-0.998263 0.475368,-0.546706 0.713099,-1.12899 0.713099,-1.74703 0,-0.380219 -0.0713384,-0.808059 -0.21392,-1.28343 -0.142582,-0.475463 -0.261448,-0.867634 -0.356502,-1.17661l-0.427841 -1.49744 -0.499179 -1.81828z"/>
    <path id="_7087108012345678910111213" class="fil8 str2" d="M115.284 64.3047l-0.998263 0.0355743c-0.451557,0 -0.760627,-0.273306 -0.926925,-0.820012 -0.261543,-0.926925 -0.392266,-2.89974 -0.392266,-5.91843 0,-1.02198 -0.0118581,-1.98467 -0.0355743,-2.88788 -0.0238111,-0.903209 -0.0476222,-1.79456 -0.0713384,-2.67396 0,-1.30733 0.0713384,-2.26993 0.21392,-2.88797 0.142582,-0.61795 0.362479,-0.962594 0.659596,-1.03393 0.297117,-0.0712435 0.516919,-0.106913 0.659596,-0.106913 0.142582,0 0.249495,0 0.320833,0 0.594234,0 1.03393,0.166393 1.31919,0.499179 0.0950546,0.0950546 0.190109,0.273306 0.285259,0.534753 0.261448,-0.427841 0.75465,-0.724958 1.47961,-0.891351 0.724863,-0.166393 1.62219,-0.24959 2.69179,-0.24959 0.855681,0 1.54497,0.0238111 2.06787,0.0713384 0.522895,0.0475273 0.986405,0.107008 1.39043,0.178251 0.118866,-0.0237162 0.297117,-0.0356692 0.534848,-0.0356692 0.713005,0 1.30724,0.154535 1.78261,0.46351 0.475368,0.314951 0.713099,0.635879 0.713099,0.968571 -0.142582,1.24197 -0.273306,2.5789 -0.392171,4.01098 -0.118866,1.43208 -0.178251,2.84035 -0.178251,4.2249 0,0.742792 0.0237162,1.45589 0.0712435,2.15106 0.0475273,0.689288 0.101031,1.26569 0.160511,1.71734 0.0593854,0.451557 0.148558,0.992382 0.267329,1.61033 0.0475273,0.237637 0.0713384,0.451557 0.0713384,0.647738 0,0.308975 -0.142582,0.487226 -0.427841,0.534753l-0.356502 0c-0.190204,-0.0475273 -0.374432,-0.0831965 -0.552683,-0.107008 -0.178251,-0.0237162 -0.386195,-0.0355743 -0.623926,-0.0355743l-0.392171 0 -1.03393 0.0355743c-0.522895,0 -0.867539,-0.362384 -1.03393,-1.08734 -0.166393,-0.724958 -0.24959,-2.60869 -0.24959,-5.6511 0,-1.21218 0.0831965,-2.39467 0.24959,-3.54747 0.166393,-1.1528 0.344644,-2.35901 0.534753,-3.61881 0,-0.380219 -0.0831965,-0.641761 -0.249495,-0.784343 -0.261448,-0.166393 -0.582376,-0.29114 -0.962689,-0.374337 -0.380313,-0.0831965 -0.784343,-0.124842 -1.21218,-0.124842 -0.665572,0 -1.41425,0.0951495 -2.24612,0.285259 -0.261543,0.0475273 -0.606187,0.142582 -1.03403,0.285259l-0.142582 3.28005c0,0.713099 -0.0296927,1.62228 -0.0890781,2.72746 -0.0594803,1.10527 -0.089173,1.77672 -0.089173,2.01446 0,1.09332 0.0178346,1.8123 0.0535038,2.15704 0.0356692,0.344644 0.136605,1.11115 0.302998,2.29962 0.0713384,0.40403 0.130724,0.689288 0.178251,0.855681 0.0476222,0.166298 0.0713384,0.297117 0.0713384,0.392171 0,0.237637 -0.0950546,0.46351 -0.285259,0.67743 -0.190109,0.213825 -0.487226,0.320833 -0.891256,0.320833 -0.166393,0 -0.392171,-0.0238111 -0.67743,-0.0713384 -0.285259,-0.0475273 -0.46351,-0.0712435 -0.534848,-0.0712435z"/>
   </g>
  </g>
 </g>
</svg>
