<?xml version="1.0" encoding="UTF-8" standalone="no"?>
<!-- Created with Inkscape (http://www.inkscape.org/) -->

<svg
   xmlns:dc="http://purl.org/dc/elements/1.1/"
   xmlns:cc="http://creativecommons.org/ns#"
   xmlns:rdf="http://www.w3.org/1999/02/22-rdf-syntax-ns#"
   xmlns:svg="http://www.w3.org/2000/svg"
   xmlns="http://www.w3.org/2000/svg"
   xmlns:xlink="http://www.w3.org/1999/xlink"
   xmlns:sodipodi="http://sodipodi.sourceforge.net/DTD/sodipodi-0.dtd"
   xmlns:inkscape="http://www.inkscape.org/namespaces/inkscape"
   height="208"
   id="svg3469"
   inkscape:version="0.48.2 r9819"
   sodipodi:docname="progress-first.svg"
   version="1.1"
   width="280">
  <defs
     id="defs3471">
    <linearGradient
       gradientUnits="userSpaceOnUse"
       id="linearGradient4288"
       inkscape:collect="always"
       x1="321.32547"
       x2="321.32547"
       xlink:href="#linearGradient4211"
       y1="242.01347"
       y2="288.3175" />
    <linearGradient
       id="linearGradient4211"
       inkscape:collect="always">
      <stop
         id="stop4213"
         offset="0"
         style="stop-color:#ffffff;stop-opacity:1;" />
      <stop
         id="stop4215"
         offset="1"
         style="stop-color:#ffffff;stop-opacity:0;" />
    </linearGradient>
    <filter
       color-interpolation-filters="sRGB"
       id="filter4219"
       inkscape:collect="always">
      <feGaussianBlur
         id="feGaussianBlur4221"
         inkscape:collect="always"
         stdDeviation="1.3148366" />
    </filter>
    <linearGradient
       gradientUnits="userSpaceOnUse"
       id="linearGradient4290"
       inkscape:collect="always"
       x1="413.5"
       x2="413.5"
       xlink:href="#linearGradient4181"
       y1="247"
       y2="297.03998" />
    <linearGradient
       id="linearGradient4181">
      <stop
         id="stop4183"
         offset="0"
         style="stop-color:#ffffff;stop-opacity:1;" />
      <stop
         id="stop4185"
         offset="1"
         style="stop-color:#eeeeec;stop-opacity:0;" />
    </linearGradient>
    <filter
       color-interpolation-filters="sRGB"
       id="filter4201"
       inkscape:collect="always">
      <feGaussianBlur
         id="feGaussianBlur4203"
         inkscape:collect="always"
         stdDeviation="1.3873274" />
    </filter>
    <linearGradient
       gradientUnits="userSpaceOnUse"
       id="linearGradient3440"
       inkscape:collect="always"
       x1="413.5"
       x2="413.5"
       xlink:href="#linearGradient4181"
       y1="247"
       y2="297.03998" />
    <linearGradient
       id="linearGradient3442">
      <stop
         id="stop3444"
         offset="0"
         style="stop-color:#ffffff;stop-opacity:1;" />
      <stop
         id="stop3446"
         offset="1"
         style="stop-color:#eeeeec;stop-opacity:0;" />
    </linearGradient>
    <linearGradient
       gradientUnits="userSpaceOnUse"
       id="linearGradient3576"
       inkscape:collect="always"
       x1="321.32547"
       x2="321.32547"
       xlink:href="#linearGradient4211"
       y1="242.01347"
       y2="288.3175" />
    <linearGradient
       gradientUnits="userSpaceOnUse"
       id="linearGradient3578"
       inkscape:collect="always"
       x1="413.5"
       x2="413.5"
       xlink:href="#linearGradient4181"
       y1="247"
       y2="297.03998" />
    <linearGradient
       gradientTransform="translate(23.350584,192.38969)"
       gradientUnits="userSpaceOnUse"
       id="linearGradient3582"
       inkscape:collect="always"
       x1="413.5"
       x2="413.5"
       xlink:href="#linearGradient4181"
       y1="247"
       y2="297.03998" />
    <linearGradient
       gradientUnits="userSpaceOnUse"
       id="linearGradient3599"
       inkscape:collect="always"
       x1="321.32547"
       x2="321.32547"
       xlink:href="#linearGradient4211"
       y1="242.01347"
       y2="288.3175" />
  </defs>
  <sodipodi:namedview
     bordercolor="#666666"
     borderopacity="1.0"
     fit-margin-bottom="0"
     fit-margin-left="0"
     fit-margin-right="0"
     fit-margin-top="0"
     id="base"
     inkscape:current-layer="layer1"
     inkscape:cx="138.42383"
     inkscape:cy="76.633748"
     inkscape:document-units="px"
     inkscape:pageopacity="0.0"
     inkscape:pageshadow="2"
     inkscape:window-height="991"
     inkscape:window-maximized="1"
     inkscape:window-width="1680"
     inkscape:window-x="0"
     inkscape:window-y="27"
     inkscape:zoom="1"
     pagecolor="#ffffff"
     showgrid="false" />
  <metadata
     id="metadata3474">
    <rdf:RDF>
      <cc:Work
         rdf:about="">
        <dc:format>image/svg+xml</dc:format>
        <dc:type
           rdf:resource="http://purl.org/dc/dcmitype/StillImage" />
        <dc:title />
      </cc:Work>
    </rdf:RDF>
  </metadata>
  <g
     id="layer1"
     inkscape:groupmode="layer"
     inkscape:label="Layer 1"
     transform="translate(-238.57617,-426.71022)">
    <path
       d="m 378.73133,463.00947 c -0.12024,-16.85202 -13.87903,-30.41631 -30.73105,-30.29607 -16.84443,0.12018 -30.40301,13.86796 -30.29481,30.70993 l -9.1e-4,-8.3e-4 0.16847,23.61278 9e-4,9e-4 c 0.0363,3.82405 3.15989,6.89766 6.98638,6.87036 0.011,-8e-5 0.0215,-9.1e-4 0.0329,-9.1e-4 l 0.002,9.1e-4 23.55284,-0.16805 0,0 c 16.84634,-0.12694 30.40362,-13.88119 30.28342,-30.72885 z"
       id="path4249"
       inkscape:connector-curvature="0"
       style="fill:#ffffff;fill-opacity:1" />
    <path
       d="m 378.73133,462.00947 c -0.12024,-16.85202 -13.87903,-30.41631 -30.73105,-30.29607 -16.84443,0.12018 -30.40301,13.86796 -30.29481,30.70993 l -9.1e-4,-8.3e-4 0.16847,23.61278 9e-4,9e-4 c 0.0363,3.82405 3.15989,6.89766 6.98638,6.87036 0.011,-8e-5 0.0215,-9.1e-4 0.0329,-9.1e-4 l 0.002,9.1e-4 23.55284,-0.16805 0,0 c 16.84634,-0.12694 30.40362,-13.88119 30.28342,-30.72885 z"
       id="path4251"
       inkscape:connector-curvature="0"
       style="fill:#888a85;fill-opacity:1" />
    <g
       id="g4253"
       transform="matrix(0.14066441,-0.0010036,0.0010036,0.14066441,317.48693,433.10844)">
      <path
         d="M 433.846,216.926 C 433.846,97.123 336.726,0 216.923,0 97.174,0 0.092,97.042 0.007,216.773 L 0,216.767 0,384.633 0.007,384.64 c 0.064,27.186 22.113,49.194 49.316,49.194 0.078,0 0.153,-0.007 0.234,-0.007 l 0.013,0.007 167.44,0 0,0 c 119.763,-0.048 216.836,-97.136 216.836,-216.908 z"
         id="path4255"
         inkscape:connector-curvature="0"
         style="fill:#294172;fill-opacity:1" />
      <g
         id="g4257"
         style="fill:#3c6eb4;fill-opacity:1">
        <path
           d="m 280.612,51.42 c -56.228,0 -101.809,45.581 -101.809,101.81 0,0.02 0,0.044 0,0.071 l 0,53.887 -53.718,0 c -0.01,0 -0.01,0 -0.017,0 -56.232,0 -101.809,45.357 -101.809,101.582 0,56.229 45.577,101.814 101.809,101.814 56.225,0 101.809,-45.586 101.809,-101.814 0,-0.018 0,-0.044 0,-0.064 l 0,-54.118 53.715,0 c 0.01,0 0.017,0 0.02,0 56.226,0 101.81,-45.129 101.81,-101.357 0,-56.23 -45.584,-101.811 -101.81,-101.811 z M 178.804,308.861 c -0.048,29.636 -24.092,53.652 -53.734,53.652 -29.677,0 -53.959,-24.061 -53.959,-53.737 0,-29.681 24.282,-54.189 53.959,-54.189 0.027,0 0.051,0.007 0.071,0.007 l 46.042,0 c 0.014,0 0.023,-0.007 0.034,-0.007 4.19,0 7.591,3.39 7.591,7.581 0,0.003 -0.004,0.01 -0.004,0.017 l 0,46.676 z M 280.609,207.188 c -0.017,0 -0.034,0 -0.051,0 l -46.072,0 c -0.007,0 -0.021,0 -0.021,0 -4.197,0 -7.588,-3.396 -7.588,-7.587 l 0,-0.007 0,-46.453 c 0.052,-29.646 24.089,-53.653 53.731,-53.653 29.681,0 53.966,24.058 53.966,53.742 10e-4,29.676 -24.284,53.958 -53.965,53.958 z"
           id="path4259"
           inkscape:connector-curvature="0"
           style="fill:#3c6eb4;fill-opacity:1" />
      </g>
      <path
         d="m 178.804,207.188 0,-53.888 c 0,-0.027 0,-0.051 0,-0.071 0,-56.229 45.581,-101.81 101.809,-101.81 8.534,0 14.595,0.957 22.494,3.027 11.513,3.017 20.915,12.45 20.922,23.434 0.004,13.274 -9.633,22.921 -24.03,22.921 -6.861,0 -9.342,-1.313 -19.389,-1.313 -29.643,0 -53.68,24.007 -53.731,53.653 l 0,46.453 0,0.007 c 0,4.19 3.391,7.587 7.588,7.587 0,0 0.014,0 0.021,0 l 35.285,0 c 13.152,0 23.766,10.522 23.776,23.705 0,13.192 -10.628,23.694 -23.776,23.694 l -42.894,0 0,54.118 c 0,0.021 0,0.047 0,0.071 0,56.222 -45.584,101.808 -101.809,101.808 -8.53,0 -14.594,-0.964 -22.49,-3.027 -11.513,-3.013 -20.922,-12.453 -20.926,-23.434 0,-13.271 9.634,-22.926 24.034,-22.926 6.854,0 9.341,1.316 19.382,1.316 29.643,0 53.687,-24.01 53.738,-53.652 0,0 0,-46.69 0,-46.693 0,-4.185 -3.4,-7.574 -7.591,-7.574 -0.007,0 -0.011,0 -0.021,0 l -35.282,-0.007 c -13.152,0 -23.779,-10.491 -23.779,-23.681 -0.007,-13.271 10.735,-23.719 24.03,-23.719 l 42.639,0 0,10e-4 z"
         id="path4261"
         inkscape:connector-curvature="0"
         style="fill:#ffffff" />
      <path
         d="m 390.09963,388.61909 0,31.13982 -6.34675,0 0,-31.13982 -10.64099,0 0,-6.26528 27.61822,0 0,6.26528 -10.63048,0 z m 44.24856,31.13982 0,-19.74195 c 0,-1.32191 0,-2.94342 0,-4.2811 -0.46254,1.14321 -1.04071,2.47826 -1.51376,3.72658 l -9.3112,21.43704 -9.12198,-21.43704 c -0.45728,-1.24832 -1.04333,-2.58337 -1.5085,-3.63722 0.0894,1.35607 0.0894,2.95919 0.0894,4.19174 l 0,19.74195 -6.07343,0 0,-37.40247 6.36778,0 8.44394,19.35562 c 0.67015,1.62151 1.41915,3.72658 1.98155,5.13522 0.57029,-1.51376 1.34556,-3.40596 1.98681,-5.13522 l 8.27574,-19.35562 6.44662,0 0,37.40247 -6.06292,0 z"
         id="path4263"
         inkscape:connector-curvature="0"
         style="fill:#3c6eb4;fill-opacity:1" />
    </g>
    <path
       d="m 359.59998,267.02865 c -0.13193,-18.49165 -15.2294,-33.37569 -33.72106,-33.24375 -18.48331,0.13187 -33.3611,15.21726 -33.24237,33.69789 l -10e-4,-9.2e-4 0.18486,25.91021 0.001,10e-4 c 0.0398,4.1961 3.46733,7.56877 7.66612,7.53881 0.012,-9e-5 0.0236,-0.001 0.0361,-0.001 l 0.002,0.001 25.84445,-0.1844 0,0 c 18.48542,-0.13929 33.36177,-15.23177 33.22987,-33.71864 z"
       id="path4265"
       inkscape:connector-curvature="0"
       style="opacity:0.34500002;fill:url(#linearGradient3599);fill-opacity:1;filter:url(#filter4219)"
       transform="matrix(0.91133106,0,0,0.91133106,51.016695,217.8353)" />
    <text
       id="fekrjfk3j4hk"
       style="font-size:76.07085419px;font-style:normal;font-weight:normal;fill:#ffffff;fill-opacity:1;stroke:none;font-family:Bitstream Vera Sans"
       x="389.14609"
       xml:space="preserve"
       y="490.38968"><tspan
         id="version4"
         sodipodi:role="line"
         style="fill:#ffffff;fill-opacity:1;font-family:Comfortaa;-inkscape-font-specification:Comfortaa"
         x="389.14609"
         y="490.38968">17</tspan></text>
    <text
       id="2uh3rk3h4ktjhk3hjt434t"
       style="font-size:76.07085419px;font-style:normal;font-weight:normal;fill:#888a85;fill-opacity:1;stroke:none;font-family:Bitstream Vera Sans"
       x="389.14609"
       xml:space="preserve"
       y="488.38968"><tspan
         id="version3"
         sodipodi:role="line"
         style="fill:#888a85;fill-opacity:1;font-family:Comfortaa;-inkscape-font-specification:Comfortaa"
         x="389.14609"
         y="488.38968">17</tspan></text>
    <text
       id="dasgjhkhj4"
       style="font-size:76.07085419px;font-style:normal;font-weight:normal;fill:#3d70b6;fill-opacity:1;stroke:none;font-family:Bitstream Vera Sans"
       x="195.14609"
       xml:space="preserve"
       y="489.38968">        <tspan
   id="version2"
   sodipodi:role="line"
   style="fill:#3d70b6;fill-opacity:1;font-family:Comfortaa;-inkscape-font-specification:Comfortaa"
   x="195.14609"
   y="489.38968">17</tspan></text>
    <text
       id="sdfkjhkj3hk2hrk4j4"
       style="font-size:76.07085419px;font-style:normal;font-weight:normal;opacity:0.375;fill:url(#linearGradient3582);fill-opacity:1;stroke:none;filter:url(#filter4201);font-family:Bitstream Vera Sans"
       x="389.14609"
       xml:space="preserve"
       y="489.38968"><tspan
         id="version1"
         sodipodi:role="line"
         style="fill:url(#linearGradient3582);fill-opacity:1;font-family:Comfortaa;-inkscape-font-specification:Comfortaa"
         x="389.14609"
         y="489.38968">17</tspan></text>
    <text
       id="copyrighttextelement"
       inkscape:export-filename="/home/duffy/Desktop/splash.png"
       inkscape:export-xdpi="90"
       inkscape:export-ydpi="90"
       style="font-size:15.20080757px;font-style:normal;font-weight:normal;fill:#b3b3b3;fill-opacity:1;stroke:none;display:inline;font-family:Bitstream Vera Sans"
       x="242.02686"
       xml:space="preserve"
       y="630.5481"><tspan
         id="copyright"
         sodipodi:role="line"
         style="font-size:9px;fill:#b3b3b3;font-family:Droid Sans;-inkscape-font-specification:Droid Sans"
         x="242.02686"
         y="630.5481">Copyright © 2003-2012 Red Hat, Inc. and others. All rights reserved.</tspan></text>
  </g>
</svg>
