<?xml version="1.0" encoding="UTF-8" standalone="no"?>
<!-- Created with Inkscape (http://www.inkscape.org/) -->

<svg
   xmlns:dc="http://purl.org/dc/elements/1.1/"
   xmlns:cc="http://creativecommons.org/ns#"
   xmlns:rdf="http://www.w3.org/1999/02/22-rdf-syntax-ns#"
   xmlns:svg="http://www.w3.org/2000/svg"
   xmlns="http://www.w3.org/2000/svg"
   xmlns:sodipodi="http://sodipodi.sourceforge.net/DTD/sodipodi-0.dtd"
   xmlns:inkscape="http://www.inkscape.org/namespaces/inkscape"
   width="224"
   height="224"
   id="svg2951"
   version="1.1"
   inkscape:version="0.48.4 r9939"
   sodipodi:docname="fedora-logo-icon.svg">
  <defs
     id="defs2953">
    <inkscape:perspective
       sodipodi:type="inkscape:persp3d"
       inkscape:vp_x="0 : 526.18109 : 1"
       inkscape:vp_y="0 : 1000 : 0"
       inkscape:vp_z="744.09448 : 526.18109 : 1"
       inkscape:persp3d-origin="372.04724 : 350.78739 : 1"
       id="perspective2959" />
    <inkscape:perspective
       id="perspective2943"
       inkscape:persp3d-origin="0.5 : 0.33333333 : 1"
       inkscape:vp_z="1 : 0.5 : 1"
       inkscape:vp_y="0 : 1000 : 0"
       inkscape:vp_x="0 : 0.5 : 1"
       sodipodi:type="inkscape:persp3d" />
  </defs>
  <sodipodi:namedview
     id="base"
     pagecolor="#ffffff"
     bordercolor="#666666"
     borderopacity="1.0"
     inkscape:pageopacity="0.0"
     inkscape:pageshadow="2"
     inkscape:zoom="1.4"
     inkscape:cx="-130.32442"
     inkscape:cy="167.44049"
     inkscape:document-units="px"
     inkscape:current-layer="layer1"
     showgrid="false"
     inkscape:window-width="1920"
     inkscape:window-height="1174"
     inkscape:window-x="0"
     inkscape:window-y="0"
     inkscape:window-maximized="1" />
  <metadata
     id="metadata2956">
    <rdf:RDF>
      <cc:Work
         rdf:about="">
        <dc:format>image/svg+xml</dc:format>
        <dc:type
           rdf:resource="http://purl.org/dc/dcmitype/StillImage" />
        <dc:title />
      </cc:Work>
    </rdf:RDF>
  </metadata>
  <g
     inkscape:label="Layer 1"
     inkscape:groupmode="layer"
     id="layer1"
     transform="translate(-373.71429,-334.64487)">
    <g
       id="g11328"
       transform="matrix(1.8680254,0,0,1.8680254,-911.5585,147.87472)"
       style="opacity:0.71600001" />
    <g
       id="g3808">
      <g
         id="g2929"
         transform="matrix(0.49229455,0,0,0.49229455,282.58004,334.65093)"
         style="display:inline;enable-background:new;opacity:1">
        <path
           style="fill:#294172;fill-opacity:1"
           id="path2438-2"
           d="M 640.13353,227.50939 C 640.13353,101.86144 538.27524,0 412.62729,0 287.03598,0 185.21754,101.77649 185.12839,227.34892 l -0.007,-0.006 0,176.05584 0.007,0.007 c 0.0671,28.51235 23.19185,51.59407 51.72203,51.59407 0.0818,0 0.16047,-0.007 0.24542,-0.007 l 0.0136,0.007 175.60906,0 0,0 c 125.606,-0.0503 227.415,-101.87507 227.415,-227.4905 z" />
        <path
           d="m 479.42355,53.928679 c -58.97125,0 -106.77606,47.804801 -106.77606,106.777111 0,0.021 0,0.0461 0,0.0745 l 0,56.51604 -56.33879,0 c -0.0105,0 -0.0105,0 -0.0178,0 -58.97545,0 -106.77606,47.56988 -106.77606,106.53798 0,58.9723 47.80061,106.7813 106.77606,106.7813 58.9681,0 106.77606,-47.81005 106.77606,-106.7813 0,-0.0189 0,-0.0462 0,-0.0671 l 0,-56.75831 56.33564,0 c 0.0105,0 0.0178,0 0.021,0 58.96915,0 106.7771,-47.33075 106.7771,-106.30201 0,-58.97335 -47.80795,-106.778151 -106.7771,-106.778151 z M 372.64854,323.92971 c -0.0503,31.08188 -25.2674,56.26957 -56.35557,56.26957 -31.12489,0 -56.59156,-25.23488 -56.59156,-56.35872 0,-31.12907 25.46667,-56.83277 56.59156,-56.83277 0.0283,0 0.0535,0.007 0.0745,0.007 l 48.2883,0 c 0.0147,0 0.0241,-0.007 0.0356,-0.007 4.39443,0 7.96135,3.55539 7.96135,7.95086 0,0.003 -0.004,0.0105 -0.004,0.0178 l 0,48.95323 z M 479.4204,217.29629 c -0.0178,0 -0.0357,0 -0.0535,0 l -48.31976,0 c -0.007,0 -0.022,0 -0.022,0 -4.40176,0 -7.9582,-3.56169 -7.9582,-7.95716 l 0,-0.007 0,-48.71935 c 0.0545,-31.09237 25.26425,-56.27062 56.35242,-56.27062 31.12908,0 56.5989,25.23174 56.5989,56.36397 10e-4,31.12383 -25.46877,56.5905 -56.59785,56.5905 z"
           id="path2442-3"
           style="fill:#3c6eb4;fill-opacity:1" />
        <path
           style="fill:#ffffff"
           id="path2444-10"
           d="m 372.64854,217.29629 0,-56.51709 c 0,-0.0283 0,-0.0535 0,-0.0745 0,-58.9723 47.80481,-106.77711 106.77606,-106.77711 8.95035,0 15.30706,1.00369 23.59143,3.174681 12.0747,3.164194 21.93541,13.057411 21.94275,24.577298 0.004,13.921612 -10.10298,24.039271 -25.20238,24.039271 -7.19573,0 -9.79778,-1.37706 -20.33495,-1.37706 -31.08922,0 -56.29894,25.17825 -56.35243,56.27062 l 0,48.71935 0,0.007 c 0,4.39443 3.55644,7.95716 7.95821,7.95716 0,0 0.0147,0 0.022,0 l 37.00649,0 c 13.79365,0 24.92549,11.03535 24.93598,24.86152 0,13.83561 -11.14652,24.84998 -24.93598,24.84998 l -44.98672,0 0,56.75831 c 0,0.022 0,0.0493 0,0.0745 0,58.96496 -47.80795,106.77501 -106.77605,106.77501 -8.94617,0 -15.30602,-1.01103 -23.58725,-3.17468 -12.07469,-3.16 -21.94274,-13.06056 -21.94693,-24.5773 0,-13.91846 10.10402,-24.04451 25.20657,-24.04451 7.18839,0 9.79672,1.3802 20.32761,1.3802 31.08922,0 56.30628,-25.1814 56.35976,-56.26957 0,0 0,-48.96791 0,-48.97106 0,-4.38918 -3.56587,-7.94352 -7.96135,-7.94352 -0.007,0 -0.0115,0 -0.022,0 l -37.00334,-0.007 c -13.79366,0 -24.93913,-11.00283 -24.93913,-24.83635 -0.007,-13.91846 11.25874,-24.8762 25.20238,-24.8762 l 44.71927,0 0,0.001 z" />
      </g>
      <path
         inkscape:connector-curvature="0"
         d="m 581.62463,538.09529 0,8.62213 c 0,0.57767 -0.34945,0.92712 -1.04833,1.04835 l -0.0749,0 c -0.59192,0 -0.95565,-0.36727 -1.09113,-1.10183 l 0,-13.67133 c 0.0856,-0.7916 0.42075,-1.18739 1.00555,-1.18741 l 0.16047,0 c 0.59192,2e-5 0.98772,0.42077 1.18741,1.2623 l 4.91012,10.97556 c 0.0643,-0.2496 1.14105,-2.75636 3.23064,-7.5203 l 2.01112,-4.33245 c 0.24245,-0.25672 0.50632,-0.38509 0.79161,-0.38511 l 0.16046,0 c 0.58477,2e-5 0.91997,0.39581 1.00556,1.18741 l 0,13.67133 c -0.13543,0.73456 -0.49923,1.10183 -1.09115,1.10183 l -0.0749,0 c -0.69892,-0.12123 -1.04837,-0.47068 -1.04835,-1.04835 l 0,-8.63282 c -2.65297,6.00483 -4.04007,9.10352 -4.16131,9.29606 -0.2924,0.25674 -0.57767,0.38511 -0.8558,0.38511 -0.62758,0 -1.14463,-0.63471 -1.55113,-1.90413 l -3.46597,-7.76635 m -14.55915,-6.33289 10.0128,0 c 0.6775,0.12833 1.01625,0.47784 1.01625,1.04835 l 0,0.16047 c 0,0.5848 -0.39582,0.91998 -1.18741,1.00556 l -3.72272,0 0,12.74064 c 0,0.57767 -0.35658,0.92712 -1.06974,1.04835 l -0.0534,0 c -0.59194,0 -0.95564,-0.36727 -1.09113,-1.10183 l 0,-12.68716 -3.80829,0 c -0.73456,-0.14253 -1.10185,-0.52774 -1.10185,-1.15532 0.15691,-0.70602 0.49209,-1.05904 1.00558,-1.05906"
         id="path5239"
         style="font-size:11.72808552000000049px;font-style:normal;font-variant:normal;font-weight:bold;font-stretch:expanded;text-align:start;line-height:89.99999762000000203%;writing-mode:lr-tb;text-anchor:start;opacity:1;fill:#3c6eb4;fill-opacity:1;stroke:none;font-family:Comfortaa;-inkscape-font-specification:Comfortaa Bold Expanded" />
    </g>
  </g>
</svg>
