/* XPM */
static char * Logo_Fedora_xpm[] = {
"20 20 87 1",
" 	c None",
".	c #CFD5DF",
"+	c #97A3BA",
"@	c #6A7B9D",
"#	c #3F5480",
"$	c #7A89A8",
"%	c #294172",
"&	c #CDD3DE",
"*	c #405581",
"=	c #59709A",
"-	c #B5C4DB",
";	c #DCE4F0",
">	c #BCCADF",
",	c #36568E",
"'	c #8094B8",
")	c #FDFDFE",
"!	c #FFFFFF",
"~	c #7397C9",
"{	c #355E9D",
"]	c #465E8B",
"^	c #F7F9FC",
"/	c #AFBED7",
"(	c #5B739D",
"_	c #4A6B9F",
":	c #3B6BB0",
"<	c #3C6EB4",
"[	c #30518A",
"}	c #879BBC",
"|	c #CFDAE9",
"1	c #325792",
"2	c #3660A0",
"3	c #AABAD4",
"4	c #8A9EBF",
"5	c #2E4C82",
"6	c #3966A8",
"7	c #ADBDD6",
"8	c #8599BB",
"9	c #345C9A",
"0	c #355E9C",
"a	c #2A4376",
"b	c #304E84",
"c	c #728AB1",
"d	c #D0DAE9",
"e	c #CCD7E8",
"f	c #6781AC",
"g	c #3763A4",
"h	c #3C6DB3",
"i	c #2D4A80",
"j	c #6A90C6",
"k	c #FEFEFF",
"l	c #4B79BA",
"m	c #3B6CB1",
"n	c #30528B",
"o	c #2E4C83",
"p	c #3F6CAD",
"q	c #96AACA",
"r	c #A7B7D2",
"s	c #EFF2F8",
"t	c #CBD7E7",
"u	c #889EC1",
"v	c #31538C",
"w	c #2B467A",
"x	c #335894",
"y	c #3C6EB3",
"z	c #2B4578",
"A	c #AEBED7",
"B	c #8498BB",
"C	c #3A69AD",
"D	c #2D4B81",
"E	c #2B4274",
"F	c #E6ECF5",
"G	c #677EA6",
"H	c #355D9B",
"I	c #3864A6",
"J	c #435B89",
"K	c #A8B9D3",
"L	c #F5F8FB",
"M	c #395181",
"N	c #3A6AAE",
"O	c #88A7D1",
"P	c #F9FAFD",
"Q	c #586B91",
"R	c #597AAD",
"S	c #EDF1F8",
"T	c #CED8E9",
"U	c #657CA4",
"V	c #2A4273",
"                    ",
"      .+@##@+.      ",
"     $%%%%%%%%$     ",
"   &*%%%%%=-;>,*&   ",
"   *%%%%%')!!!~{*   ",
"  $%%%%%]^!/(_:<[$  ",
" .%%%%%%}!|%%%1<2%. ",
" +%%%%%%3!4%%%5<6%+ ",
" @%%%%%%7!8%%%9<0%@ ",
" #%%abc8d!e8fg<hi%# ",
" %%[:j!!!!!!klmn%%# ",
" %o<<pqrs!truvw%%%@ ",
" %g<x%%%7!8%%%%%%%+ ",
" %myz%%%A!B%%%%%%%. ",
" %C<D%%EF!G%%%%%%$  ",
" %H<IoJK!LM%%%%%*   ",
" %zNOPk!!'%%%%%*&   ",
" Q%zRS^TU%%%%%$     ",
" &Q%%%V%%%#@+.      ",
"                    "};
