/* XPM */
static char * fedora_small_4_xpm[] = {
"60 20 131 2",
"  	c None",
". 	c #93AFD6",
"+ 	c #5984BF",
"@ 	c #4D7BBA",
"# 	c #D2DDEE",
"$ 	c #C5D4E9",
"% 	c #4F7CBB",
"& 	c #D1DDED",
"* 	c #6990C5",
"= 	c #3C6EB4",
"- 	c #3D6FB4",
"; 	c #5581BE",
"> 	c #C9D7EA",
", 	c #97B2D7",
"' 	c #A3BBDC",
") 	c #B9CBE4",
"! 	c #5480BD",
"~ 	c #DDE5F2",
"{ 	c #90ADD4",
"] 	c #A0B8DB",
"^ 	c #80A1CE",
"/ 	c #AEC3E0",
"( 	c #CFDBEC",
"_ 	c #E7EDF6",
": 	c #C7D5EA",
"< 	c #EAF0F7",
"[ 	c #EDF2F8",
"} 	c #C8D6EA",
"| 	c #DCE5F1",
"1 	c #EFF3F9",
"2 	c #D4DFEF",
"3 	c #D0DCED",
"4 	c #BBCCE5",
"5 	c #4171B6",
"6 	c #9BB5D8",
"7 	c #3F70B5",
"8 	c #4172B6",
"9 	c #A5BCDC",
"0 	c #E3EAF4",
"a 	c #678EC4",
"b 	c #7A9CCC",
"c 	c #92AED5",
"d 	c #ECF1F8",
"e 	c #779ACB",
"f 	c #4E7BBB",
"g 	c #C0D0E7",
"h 	c #517EBC",
"i 	c #517DBC",
"j 	c #C6D4E9",
"k 	c #4776B8",
"l 	c #9CB5D9",
"m 	c #4071B5",
"n 	c #8DAAD3",
"o 	c #EBF0F7",
"p 	c #82A2CF",
"q 	c #658DC4",
"r 	c #88A6D1",
"s 	c #8AA8D2",
"t 	c #5782BE",
"u 	c #95B1D6",
"v 	c #9CB6D9",
"w 	c #4E7CBB",
"x 	c #8EABD3",
"y 	c #6E93C7",
"z 	c #4A78B9",
"A 	c #688FC5",
"B 	c #4B79BA",
"C 	c #85A4D0",
"D 	c #CDD9EC",
"E 	c #84A3D0",
"F 	c #7599CA",
"G 	c #B6C8E3",
"H 	c #4978B9",
"I 	c #4474B7",
"J 	c #9AB4D8",
"K 	c #658CC4",
"L 	c #CEDBEC",
"M 	c #6E94C7",
"N 	c #C2D2E7",
"O 	c #A4BBDC",
"P 	c #6189C2",
"Q 	c #6F94C8",
"R 	c #ADC2E0",
"S 	c #5E87C1",
"T 	c #BDCEE6",
"U 	c #537FBD",
"V 	c #88A7D1",
"W 	c #4273B6",
"X 	c #4777B8",
"Y 	c #5D86C1",
"Z 	c #E6ECF5",
"` 	c #789BCB",
" .	c #83A3CF",
"..	c #AFC4E0",
"+.	c #81A1CE",
"@.	c #B4C7E2",
"#.	c #7B9DCC",
"$.	c #4C7ABA",
"%.	c #A6BCDD",
"&.	c #DFE7F3",
"*.	c #7296C9",
"=.	c #7F9FCE",
"-.	c #EEF2F9",
";.	c #C3D3E8",
">.	c #BACCE5",
",.	c #94AFD6",
"'.	c #BFCFE6",
").	c #C3D2E8",
"!.	c #87A6D1",
"~.	c #668DC4",
"{.	c #3E70B5",
"].	c #ACC2DF",
"^.	c #85A5D0",
"/.	c #B6C9E3",
"(.	c #4675B8",
"_.	c #86A5D1",
":.	c #3E6FB5",
"<.	c #E1E9F4",
"[.	c #AFC3E0",
"}.	c #638BC3",
"|.	c #7C9ECD",
"1.	c #7397C9",
"2.	c #BECFE6",
"3.	c #628AC3",
"4.	c #D7E1F0",
"5.	c #DAE3F1",
"6.	c #6D92C7",
"7.	c #5B85C0",
"8.	c #5C86C0",
"9.	c #98B2D7",
"0.	c #B5C8E2",
"                                                                                                                        ",
"                                                                                                                        ",
"                                                                                                                        ",
"            . + @ #                                   $ % &                                                             ",
"          * = - ; >                                   , = '                                                             ",
"        ) = ! ~                                       , = '                                                             ",
"        { = ]                                         , = '                                                             ",
"        ^ = /             ( #                 _ : <   , = '         [ } |             1     2 |         3 (             ",
"    4 - = = = 5 3     6 7 = = 8 9         0 a = = = b c = '     d e = = = f g       h i j k = %     l m = = - n         ",
"    o p ! = q r     s = t l u % = v       w = k x y = 8 = '     t = z { A = = 4     = = - B C D   E = m ^ ^ m = F       ",
"        C = G     2 = H       d I 5 o   J = K       L = = '   v = M       N = H     = = r       L = H o     o H = >     ",
"        C = G     O = K ' ' ' ' P = g   Q = R         S = '   * = T         U = &   = = _       J = V         V = l     ",
"        C = G     { = W X X X X X w 2   Y = 2         C = '   U = Z         ` = 4   = =          .= ..        ..= +.    ",
"        C = G     @.= F                 #.= ,         $.= '   e = %.        I = &.  = =         O = *.        *.= =.    ",
"        C = G     -.B = ;.      s P     >.= @ T   d ,.= = '   '.= U ).  _ !.= ~.    = =         0 W {.].    ].{.= =.    ",
"        ^.= /.      ).8 = ! y (.= _.      b = = f m = B = O     !.= = % :.= w <.    = =           [.:.= k k = H = =.    ",
"        N }._         &.|.h f 1.2.          %.3.(.K 4 4.A 5.      >.6.X 7.x         C r             3 1.B 8.9.[ F 0.    ",
"                                                                                                                        ",
"                                                                                                                        ",
"                                                                                                                        "};
